<mxfile host="app.diagrams.net" modified="2023-05-11T04:17:34.740Z" agent="Mozilla/5.0 (Windows NT 10.0; Win64; x64) AppleWebKit/537.36 (KHTML, like Gecko) Chrome/113.0.0.0 Safari/537.36" etag="vGYirsxtQaB1PKu7XiVs" version="21.2.9" type="github" pages="2">
  <diagram id="z_FFTZjV6OdkJN_E0K4J" name="Page-2">
    <mxGraphModel dx="951" dy="1254" grid="1" gridSize="10" guides="1" tooltips="1" connect="1" arrows="1" fold="1" page="1" pageScale="1" pageWidth="850" pageHeight="1100" math="0" shadow="0">
      <root>
        <mxCell id="0" />
        <mxCell id="1" parent="0" />
        <mxCell id="YKO31L50aErx6rVJHhrz-24" style="edgeStyle=orthogonalEdgeStyle;rounded=0;orthogonalLoop=1;jettySize=auto;html=1;entryX=0.5;entryY=0;entryDx=0;entryDy=0;" parent="1" source="YKO31L50aErx6rVJHhrz-1" target="YKO31L50aErx6rVJHhrz-10" edge="1">
          <mxGeometry relative="1" as="geometry" />
        </mxCell>
        <mxCell id="YKO31L50aErx6rVJHhrz-1" value="Data Admin" style="shape=manualInput;whiteSpace=wrap;html=1;" parent="1" vertex="1">
          <mxGeometry x="70" y="110" width="130" height="60" as="geometry" />
        </mxCell>
        <mxCell id="YKO31L50aErx6rVJHhrz-25" style="edgeStyle=orthogonalEdgeStyle;rounded=0;orthogonalLoop=1;jettySize=auto;html=1;" parent="1" source="YKO31L50aErx6rVJHhrz-2" target="YKO31L50aErx6rVJHhrz-11" edge="1">
          <mxGeometry relative="1" as="geometry" />
        </mxCell>
        <mxCell id="YKO31L50aErx6rVJHhrz-2" value="Data dosen" style="shape=manualInput;whiteSpace=wrap;html=1;" parent="1" vertex="1">
          <mxGeometry x="280" y="110" width="130" height="60" as="geometry" />
        </mxCell>
        <mxCell id="YKO31L50aErx6rVJHhrz-39" style="edgeStyle=orthogonalEdgeStyle;rounded=0;orthogonalLoop=1;jettySize=auto;html=1;entryX=0.5;entryY=0;entryDx=0;entryDy=0;" parent="1" source="YKO31L50aErx6rVJHhrz-3" target="YKO31L50aErx6rVJHhrz-12" edge="1">
          <mxGeometry relative="1" as="geometry" />
        </mxCell>
        <mxCell id="YKO31L50aErx6rVJHhrz-3" value="data jadwal" style="shape=manualInput;whiteSpace=wrap;html=1;" parent="1" vertex="1">
          <mxGeometry x="470" y="110" width="130" height="60" as="geometry" />
        </mxCell>
        <mxCell id="YKO31L50aErx6rVJHhrz-44" style="edgeStyle=orthogonalEdgeStyle;rounded=0;orthogonalLoop=1;jettySize=auto;html=1;entryX=0.5;entryY=0;entryDx=0;entryDy=0;" parent="1" source="YKO31L50aErx6rVJHhrz-4" target="YKO31L50aErx6rVJHhrz-13" edge="1">
          <mxGeometry relative="1" as="geometry" />
        </mxCell>
        <mxCell id="YKO31L50aErx6rVJHhrz-4" value="data krs" style="shape=manualInput;whiteSpace=wrap;html=1;" parent="1" vertex="1">
          <mxGeometry x="660" y="110" width="130" height="60" as="geometry" />
        </mxCell>
        <mxCell id="paC2ZWNHH-_En14PZSli-9" style="edgeStyle=orthogonalEdgeStyle;rounded=0;orthogonalLoop=1;jettySize=auto;html=1;entryX=0.5;entryY=0;entryDx=0;entryDy=0;" parent="1" source="YKO31L50aErx6rVJHhrz-5" target="YKO31L50aErx6rVJHhrz-14" edge="1">
          <mxGeometry relative="1" as="geometry" />
        </mxCell>
        <mxCell id="YKO31L50aErx6rVJHhrz-5" value="data presensi" style="shape=manualInput;whiteSpace=wrap;html=1;" parent="1" vertex="1">
          <mxGeometry x="850" y="110" width="130" height="60" as="geometry" />
        </mxCell>
        <mxCell id="YKO31L50aErx6rVJHhrz-6" value="data khs" style="shape=manualInput;whiteSpace=wrap;html=1;" parent="1" vertex="1">
          <mxGeometry x="1050" y="110" width="130" height="60" as="geometry" />
        </mxCell>
        <mxCell id="in3rAhRjPtGNcjfJRjm0-7" style="edgeStyle=orthogonalEdgeStyle;rounded=0;orthogonalLoop=1;jettySize=auto;html=1;entryX=0.5;entryY=0;entryDx=0;entryDy=0;" parent="1" source="YKO31L50aErx6rVJHhrz-7" target="YKO31L50aErx6rVJHhrz-18" edge="1">
          <mxGeometry relative="1" as="geometry" />
        </mxCell>
        <mxCell id="YKO31L50aErx6rVJHhrz-7" value="data matakuliah" style="shape=manualInput;whiteSpace=wrap;html=1;" parent="1" vertex="1">
          <mxGeometry x="1250" y="110" width="130" height="60" as="geometry" />
        </mxCell>
        <mxCell id="in3rAhRjPtGNcjfJRjm0-1" style="edgeStyle=orthogonalEdgeStyle;rounded=0;orthogonalLoop=1;jettySize=auto;html=1;" parent="1" source="YKO31L50aErx6rVJHhrz-8" target="YKO31L50aErx6rVJHhrz-19" edge="1">
          <mxGeometry relative="1" as="geometry" />
        </mxCell>
        <mxCell id="YKO31L50aErx6rVJHhrz-8" value="data jurusan" style="shape=manualInput;whiteSpace=wrap;html=1;" parent="1" vertex="1">
          <mxGeometry x="1450" y="110" width="130" height="60" as="geometry" />
        </mxCell>
        <mxCell id="in3rAhRjPtGNcjfJRjm0-4" style="edgeStyle=orthogonalEdgeStyle;rounded=0;orthogonalLoop=1;jettySize=auto;html=1;" parent="1" source="YKO31L50aErx6rVJHhrz-9" target="YKO31L50aErx6rVJHhrz-20" edge="1">
          <mxGeometry relative="1" as="geometry" />
        </mxCell>
        <mxCell id="YKO31L50aErx6rVJHhrz-9" value="data nilai" style="shape=manualInput;whiteSpace=wrap;html=1;" parent="1" vertex="1">
          <mxGeometry x="1660" y="110" width="130" height="60" as="geometry" />
        </mxCell>
        <mxCell id="YKO31L50aErx6rVJHhrz-23" style="edgeStyle=orthogonalEdgeStyle;rounded=0;orthogonalLoop=1;jettySize=auto;html=1;entryX=0.5;entryY=0;entryDx=0;entryDy=0;entryPerimeter=0;" parent="1" source="YKO31L50aErx6rVJHhrz-10" target="YKO31L50aErx6rVJHhrz-22" edge="1">
          <mxGeometry relative="1" as="geometry">
            <Array as="points">
              <mxPoint x="138" y="360" />
              <mxPoint x="138" y="360" />
            </Array>
          </mxGeometry>
        </mxCell>
        <mxCell id="YKO31L50aErx6rVJHhrz-10" value="Proses&lt;br&gt;admin" style="rounded=0;whiteSpace=wrap;html=1;" parent="1" vertex="1">
          <mxGeometry x="95" y="230" width="80" height="70" as="geometry" />
        </mxCell>
        <mxCell id="YKO31L50aErx6rVJHhrz-27" style="edgeStyle=orthogonalEdgeStyle;rounded=0;orthogonalLoop=1;jettySize=auto;html=1;entryX=0.5;entryY=0;entryDx=0;entryDy=0;entryPerimeter=0;" parent="1" source="YKO31L50aErx6rVJHhrz-11" target="YKO31L50aErx6rVJHhrz-26" edge="1">
          <mxGeometry relative="1" as="geometry" />
        </mxCell>
        <mxCell id="YKO31L50aErx6rVJHhrz-11" value="proses dosen" style="rounded=0;whiteSpace=wrap;html=1;" parent="1" vertex="1">
          <mxGeometry x="305" y="230" width="80" height="70" as="geometry" />
        </mxCell>
        <mxCell id="YKO31L50aErx6rVJHhrz-43" style="edgeStyle=orthogonalEdgeStyle;rounded=0;orthogonalLoop=1;jettySize=auto;html=1;entryX=0.5;entryY=0;entryDx=0;entryDy=0;entryPerimeter=0;" parent="1" source="YKO31L50aErx6rVJHhrz-12" target="YKO31L50aErx6rVJHhrz-28" edge="1">
          <mxGeometry relative="1" as="geometry" />
        </mxCell>
        <mxCell id="YKO31L50aErx6rVJHhrz-12" value="proses jadwal" style="rounded=0;whiteSpace=wrap;html=1;" parent="1" vertex="1">
          <mxGeometry x="495" y="230" width="80" height="70" as="geometry" />
        </mxCell>
        <mxCell id="YKO31L50aErx6rVJHhrz-45" style="edgeStyle=orthogonalEdgeStyle;rounded=0;orthogonalLoop=1;jettySize=auto;html=1;entryX=0.5;entryY=0;entryDx=0;entryDy=0;entryPerimeter=0;" parent="1" source="YKO31L50aErx6rVJHhrz-13" target="YKO31L50aErx6rVJHhrz-29" edge="1">
          <mxGeometry relative="1" as="geometry" />
        </mxCell>
        <mxCell id="YKO31L50aErx6rVJHhrz-13" value="proses krs" style="rounded=0;whiteSpace=wrap;html=1;" parent="1" vertex="1">
          <mxGeometry x="685" y="230" width="80" height="70" as="geometry" />
        </mxCell>
        <mxCell id="paC2ZWNHH-_En14PZSli-8" style="edgeStyle=orthogonalEdgeStyle;rounded=0;orthogonalLoop=1;jettySize=auto;html=1;entryX=0.5;entryY=0;entryDx=0;entryDy=0;entryPerimeter=0;" parent="1" source="YKO31L50aErx6rVJHhrz-14" target="YKO31L50aErx6rVJHhrz-30" edge="1">
          <mxGeometry relative="1" as="geometry" />
        </mxCell>
        <mxCell id="YKO31L50aErx6rVJHhrz-14" value="proses presensi" style="rounded=0;whiteSpace=wrap;html=1;" parent="1" vertex="1">
          <mxGeometry x="875" y="230" width="80" height="70" as="geometry" />
        </mxCell>
        <mxCell id="paC2ZWNHH-_En14PZSli-11" style="edgeStyle=orthogonalEdgeStyle;rounded=0;orthogonalLoop=1;jettySize=auto;html=1;" parent="1" source="YKO31L50aErx6rVJHhrz-17" target="YKO31L50aErx6rVJHhrz-31" edge="1">
          <mxGeometry relative="1" as="geometry">
            <Array as="points">
              <mxPoint x="1110" y="360" />
              <mxPoint x="1110" y="360" />
            </Array>
          </mxGeometry>
        </mxCell>
        <mxCell id="YKO31L50aErx6rVJHhrz-17" value="" style="rounded=0;whiteSpace=wrap;html=1;" parent="1" vertex="1">
          <mxGeometry x="1075" y="230" width="80" height="70" as="geometry" />
        </mxCell>
        <mxCell id="in3rAhRjPtGNcjfJRjm0-8" style="edgeStyle=orthogonalEdgeStyle;rounded=0;orthogonalLoop=1;jettySize=auto;html=1;" parent="1" source="YKO31L50aErx6rVJHhrz-18" target="YKO31L50aErx6rVJHhrz-32" edge="1">
          <mxGeometry relative="1" as="geometry" />
        </mxCell>
        <mxCell id="YKO31L50aErx6rVJHhrz-18" value="" style="rounded=0;whiteSpace=wrap;html=1;" parent="1" vertex="1">
          <mxGeometry x="1275" y="230" width="80" height="70" as="geometry" />
        </mxCell>
        <mxCell id="in3rAhRjPtGNcjfJRjm0-2" style="edgeStyle=orthogonalEdgeStyle;rounded=0;orthogonalLoop=1;jettySize=auto;html=1;" parent="1" source="YKO31L50aErx6rVJHhrz-19" target="YKO31L50aErx6rVJHhrz-33" edge="1">
          <mxGeometry relative="1" as="geometry" />
        </mxCell>
        <mxCell id="YKO31L50aErx6rVJHhrz-19" value="" style="rounded=0;whiteSpace=wrap;html=1;" parent="1" vertex="1">
          <mxGeometry x="1475" y="230" width="80" height="70" as="geometry" />
        </mxCell>
        <mxCell id="in3rAhRjPtGNcjfJRjm0-5" style="edgeStyle=orthogonalEdgeStyle;rounded=0;orthogonalLoop=1;jettySize=auto;html=1;" parent="1" source="YKO31L50aErx6rVJHhrz-20" target="YKO31L50aErx6rVJHhrz-34" edge="1">
          <mxGeometry relative="1" as="geometry" />
        </mxCell>
        <mxCell id="YKO31L50aErx6rVJHhrz-20" value="" style="rounded=0;whiteSpace=wrap;html=1;" parent="1" vertex="1">
          <mxGeometry x="1685" y="230" width="80" height="70" as="geometry" />
        </mxCell>
        <mxCell id="YKO31L50aErx6rVJHhrz-22" value="admin" style="strokeWidth=2;html=1;shape=mxgraph.flowchart.stored_data;whiteSpace=wrap;" parent="1" vertex="1">
          <mxGeometry x="85" y="420" width="105" height="60" as="geometry" />
        </mxCell>
        <mxCell id="YKO31L50aErx6rVJHhrz-38" style="edgeStyle=orthogonalEdgeStyle;rounded=0;orthogonalLoop=1;jettySize=auto;html=1;" parent="1" source="YKO31L50aErx6rVJHhrz-26" target="YKO31L50aErx6rVJHhrz-12" edge="1">
          <mxGeometry relative="1" as="geometry">
            <Array as="points">
              <mxPoint x="370" y="370" />
              <mxPoint x="510" y="370" />
            </Array>
          </mxGeometry>
        </mxCell>
        <mxCell id="in3rAhRjPtGNcjfJRjm0-16" style="edgeStyle=orthogonalEdgeStyle;rounded=0;orthogonalLoop=1;jettySize=auto;html=1;entryX=0.25;entryY=0;entryDx=0;entryDy=0;" parent="1" source="YKO31L50aErx6rVJHhrz-26" target="in3rAhRjPtGNcjfJRjm0-11" edge="1">
          <mxGeometry relative="1" as="geometry">
            <Array as="points">
              <mxPoint x="345" y="520" />
              <mxPoint x="503" y="520" />
            </Array>
          </mxGeometry>
        </mxCell>
        <mxCell id="YKO31L50aErx6rVJHhrz-26" value="dosen" style="strokeWidth=2;html=1;shape=mxgraph.flowchart.stored_data;whiteSpace=wrap;" parent="1" vertex="1">
          <mxGeometry x="292.5" y="420" width="105" height="60" as="geometry" />
        </mxCell>
        <mxCell id="YKO31L50aErx6rVJHhrz-42" style="edgeStyle=orthogonalEdgeStyle;rounded=0;orthogonalLoop=1;jettySize=auto;html=1;" parent="1" source="YKO31L50aErx6rVJHhrz-28" edge="1">
          <mxGeometry relative="1" as="geometry">
            <mxPoint x="720" y="300" as="targetPoint" />
            <Array as="points">
              <mxPoint x="570" y="400" />
              <mxPoint x="720" y="400" />
            </Array>
          </mxGeometry>
        </mxCell>
        <mxCell id="YKO31L50aErx6rVJHhrz-59" style="edgeStyle=orthogonalEdgeStyle;rounded=0;orthogonalLoop=1;jettySize=auto;html=1;entryX=0.75;entryY=1;entryDx=0;entryDy=0;" parent="1" source="YKO31L50aErx6rVJHhrz-28" target="YKO31L50aErx6rVJHhrz-49" edge="1">
          <mxGeometry relative="1" as="geometry">
            <Array as="points">
              <mxPoint x="550" y="340" />
              <mxPoint x="1935" y="340" />
            </Array>
          </mxGeometry>
        </mxCell>
        <mxCell id="in3rAhRjPtGNcjfJRjm0-17" style="edgeStyle=orthogonalEdgeStyle;rounded=0;orthogonalLoop=1;jettySize=auto;html=1;entryX=0.5;entryY=0;entryDx=0;entryDy=0;" parent="1" source="YKO31L50aErx6rVJHhrz-28" target="in3rAhRjPtGNcjfJRjm0-11" edge="1">
          <mxGeometry relative="1" as="geometry" />
        </mxCell>
        <mxCell id="YKO31L50aErx6rVJHhrz-28" value="" style="strokeWidth=2;html=1;shape=mxgraph.flowchart.stored_data;whiteSpace=wrap;" parent="1" vertex="1">
          <mxGeometry x="482.5" y="420" width="105" height="60" as="geometry" />
        </mxCell>
        <mxCell id="YKO31L50aErx6rVJHhrz-46" style="edgeStyle=orthogonalEdgeStyle;rounded=0;orthogonalLoop=1;jettySize=auto;html=1;entryX=0.25;entryY=1;entryDx=0;entryDy=0;" parent="1" source="YKO31L50aErx6rVJHhrz-29" target="YKO31L50aErx6rVJHhrz-17" edge="1">
          <mxGeometry relative="1" as="geometry">
            <Array as="points">
              <mxPoint x="740" y="330" />
              <mxPoint x="1095" y="330" />
            </Array>
          </mxGeometry>
        </mxCell>
        <mxCell id="in3rAhRjPtGNcjfJRjm0-18" style="edgeStyle=orthogonalEdgeStyle;rounded=0;orthogonalLoop=1;jettySize=auto;html=1;entryX=0.75;entryY=0;entryDx=0;entryDy=0;" parent="1" source="YKO31L50aErx6rVJHhrz-29" target="in3rAhRjPtGNcjfJRjm0-11" edge="1">
          <mxGeometry relative="1" as="geometry">
            <Array as="points">
              <mxPoint x="725" y="490" />
              <mxPoint x="568" y="490" />
            </Array>
          </mxGeometry>
        </mxCell>
        <mxCell id="YKO31L50aErx6rVJHhrz-29" value="" style="strokeWidth=2;html=1;shape=mxgraph.flowchart.stored_data;whiteSpace=wrap;" parent="1" vertex="1">
          <mxGeometry x="672.5" y="420" width="105" height="60" as="geometry" />
        </mxCell>
        <mxCell id="paC2ZWNHH-_En14PZSli-10" style="edgeStyle=orthogonalEdgeStyle;rounded=0;orthogonalLoop=1;jettySize=auto;html=1;entryX=0.645;entryY=1.017;entryDx=0;entryDy=0;entryPerimeter=0;" parent="1" source="YKO31L50aErx6rVJHhrz-30" target="YKO31L50aErx6rVJHhrz-17" edge="1">
          <mxGeometry relative="1" as="geometry">
            <Array as="points">
              <mxPoint x="940" y="400" />
              <mxPoint x="1127" y="400" />
            </Array>
          </mxGeometry>
        </mxCell>
        <mxCell id="in3rAhRjPtGNcjfJRjm0-21" style="edgeStyle=orthogonalEdgeStyle;rounded=0;orthogonalLoop=1;jettySize=auto;html=1;entryX=0.25;entryY=0;entryDx=0;entryDy=0;" parent="1" source="YKO31L50aErx6rVJHhrz-30" target="in3rAhRjPtGNcjfJRjm0-19" edge="1">
          <mxGeometry relative="1" as="geometry">
            <Array as="points">
              <mxPoint x="915" y="540" />
              <mxPoint x="1086" y="540" />
            </Array>
          </mxGeometry>
        </mxCell>
        <mxCell id="YKO31L50aErx6rVJHhrz-30" value="" style="strokeWidth=2;html=1;shape=mxgraph.flowchart.stored_data;whiteSpace=wrap;" parent="1" vertex="1">
          <mxGeometry x="862.5" y="420" width="105" height="60" as="geometry" />
        </mxCell>
        <mxCell id="in3rAhRjPtGNcjfJRjm0-22" style="edgeStyle=orthogonalEdgeStyle;rounded=0;orthogonalLoop=1;jettySize=auto;html=1;" parent="1" source="YKO31L50aErx6rVJHhrz-31" target="in3rAhRjPtGNcjfJRjm0-19" edge="1">
          <mxGeometry relative="1" as="geometry" />
        </mxCell>
        <mxCell id="YKO31L50aErx6rVJHhrz-31" value="" style="strokeWidth=2;html=1;shape=mxgraph.flowchart.stored_data;whiteSpace=wrap;" parent="1" vertex="1">
          <mxGeometry x="1062.5" y="420" width="105" height="60" as="geometry" />
        </mxCell>
        <mxCell id="in3rAhRjPtGNcjfJRjm0-9" style="edgeStyle=orthogonalEdgeStyle;rounded=0;orthogonalLoop=1;jettySize=auto;html=1;entryX=0.879;entryY=0.993;entryDx=0;entryDy=0;entryPerimeter=0;" parent="1" source="YKO31L50aErx6rVJHhrz-32" target="YKO31L50aErx6rVJHhrz-49" edge="1">
          <mxGeometry relative="1" as="geometry">
            <Array as="points">
              <mxPoint x="1330" y="400" />
              <mxPoint x="1945" y="400" />
            </Array>
          </mxGeometry>
        </mxCell>
        <mxCell id="in3rAhRjPtGNcjfJRjm0-23" style="edgeStyle=orthogonalEdgeStyle;rounded=0;orthogonalLoop=1;jettySize=auto;html=1;entryX=0.803;entryY=-0.064;entryDx=0;entryDy=0;entryPerimeter=0;" parent="1" source="YKO31L50aErx6rVJHhrz-32" target="in3rAhRjPtGNcjfJRjm0-19" edge="1">
          <mxGeometry relative="1" as="geometry">
            <Array as="points">
              <mxPoint x="1315" y="500" />
              <mxPoint x="1164" y="500" />
            </Array>
          </mxGeometry>
        </mxCell>
        <mxCell id="YKO31L50aErx6rVJHhrz-32" value="" style="strokeWidth=2;html=1;shape=mxgraph.flowchart.stored_data;whiteSpace=wrap;" parent="1" vertex="1">
          <mxGeometry x="1262.5" y="420" width="105" height="60" as="geometry" />
        </mxCell>
        <mxCell id="in3rAhRjPtGNcjfJRjm0-3" style="edgeStyle=orthogonalEdgeStyle;rounded=0;orthogonalLoop=1;jettySize=auto;html=1;entryX=0.75;entryY=1;entryDx=0;entryDy=0;" parent="1" source="YKO31L50aErx6rVJHhrz-33" target="YKO31L50aErx6rVJHhrz-12" edge="1">
          <mxGeometry relative="1" as="geometry">
            <Array as="points">
              <mxPoint x="1515" y="360" />
              <mxPoint x="555" y="360" />
            </Array>
          </mxGeometry>
        </mxCell>
        <mxCell id="in3rAhRjPtGNcjfJRjm0-31" style="edgeStyle=orthogonalEdgeStyle;rounded=0;orthogonalLoop=1;jettySize=auto;html=1;" parent="1" source="YKO31L50aErx6rVJHhrz-33" target="in3rAhRjPtGNcjfJRjm0-30" edge="1">
          <mxGeometry relative="1" as="geometry" />
        </mxCell>
        <mxCell id="YKO31L50aErx6rVJHhrz-33" value="" style="strokeWidth=2;html=1;shape=mxgraph.flowchart.stored_data;whiteSpace=wrap;" parent="1" vertex="1">
          <mxGeometry x="1462.5" y="420" width="105" height="60" as="geometry" />
        </mxCell>
        <mxCell id="in3rAhRjPtGNcjfJRjm0-6" style="edgeStyle=orthogonalEdgeStyle;rounded=0;orthogonalLoop=1;jettySize=auto;html=1;entryX=0.75;entryY=1;entryDx=0;entryDy=0;" parent="1" source="YKO31L50aErx6rVJHhrz-34" target="YKO31L50aErx6rVJHhrz-17" edge="1">
          <mxGeometry relative="1" as="geometry">
            <Array as="points">
              <mxPoint x="1710" y="390" />
              <mxPoint x="1135" y="390" />
            </Array>
          </mxGeometry>
        </mxCell>
        <mxCell id="in3rAhRjPtGNcjfJRjm0-27" style="edgeStyle=orthogonalEdgeStyle;rounded=0;orthogonalLoop=1;jettySize=auto;html=1;entryX=0.125;entryY=-0.032;entryDx=0;entryDy=0;entryPerimeter=0;" parent="1" source="YKO31L50aErx6rVJHhrz-34" target="in3rAhRjPtGNcjfJRjm0-24" edge="1">
          <mxGeometry relative="1" as="geometry">
            <Array as="points">
              <mxPoint x="1725" y="510" />
              <mxPoint x="1880" y="510" />
            </Array>
          </mxGeometry>
        </mxCell>
        <mxCell id="OMc9C0ZfIJ8VV3oP5o0l-1" style="edgeStyle=orthogonalEdgeStyle;rounded=0;orthogonalLoop=1;jettySize=auto;html=1;entryX=0.25;entryY=1;entryDx=0;entryDy=0;" parent="1" source="YKO31L50aErx6rVJHhrz-34" target="YKO31L50aErx6rVJHhrz-14" edge="1">
          <mxGeometry relative="1" as="geometry">
            <Array as="points">
              <mxPoint x="1740" y="370" />
              <mxPoint x="895" y="370" />
            </Array>
          </mxGeometry>
        </mxCell>
        <mxCell id="YKO31L50aErx6rVJHhrz-34" value="" style="strokeWidth=2;html=1;shape=mxgraph.flowchart.stored_data;whiteSpace=wrap;" parent="1" vertex="1">
          <mxGeometry x="1672.5" y="420" width="105" height="60" as="geometry" />
        </mxCell>
        <mxCell id="YKO31L50aErx6rVJHhrz-57" style="edgeStyle=orthogonalEdgeStyle;rounded=0;orthogonalLoop=1;jettySize=auto;html=1;" parent="1" source="YKO31L50aErx6rVJHhrz-48" target="YKO31L50aErx6rVJHhrz-49" edge="1">
          <mxGeometry relative="1" as="geometry" />
        </mxCell>
        <mxCell id="YKO31L50aErx6rVJHhrz-48" value="data krs" style="shape=manualInput;whiteSpace=wrap;html=1;" parent="1" vertex="1">
          <mxGeometry x="1850" y="110" width="130" height="60" as="geometry" />
        </mxCell>
        <mxCell id="YKO31L50aErx6rVJHhrz-58" style="edgeStyle=orthogonalEdgeStyle;rounded=0;orthogonalLoop=1;jettySize=auto;html=1;entryX=0.5;entryY=0;entryDx=0;entryDy=0;entryPerimeter=0;" parent="1" source="YKO31L50aErx6rVJHhrz-49" target="YKO31L50aErx6rVJHhrz-50" edge="1">
          <mxGeometry relative="1" as="geometry" />
        </mxCell>
        <mxCell id="YKO31L50aErx6rVJHhrz-49" value="" style="rounded=0;whiteSpace=wrap;html=1;" parent="1" vertex="1">
          <mxGeometry x="1875" y="230" width="80" height="70" as="geometry" />
        </mxCell>
        <mxCell id="paC2ZWNHH-_En14PZSli-1" style="edgeStyle=orthogonalEdgeStyle;rounded=0;orthogonalLoop=1;jettySize=auto;html=1;entryX=0.5;entryY=1;entryDx=0;entryDy=0;exitX=0.736;exitY=-0.073;exitDx=0;exitDy=0;exitPerimeter=0;" parent="1" source="YKO31L50aErx6rVJHhrz-33" target="YKO31L50aErx6rVJHhrz-17" edge="1">
          <mxGeometry relative="1" as="geometry">
            <Array as="points">
              <mxPoint x="1540" y="360" />
              <mxPoint x="1115" y="360" />
            </Array>
          </mxGeometry>
        </mxCell>
        <mxCell id="paC2ZWNHH-_En14PZSli-7" style="edgeStyle=orthogonalEdgeStyle;rounded=0;orthogonalLoop=1;jettySize=auto;html=1;entryX=0.75;entryY=1;entryDx=0;entryDy=0;" parent="1" source="YKO31L50aErx6rVJHhrz-50" target="YKO31L50aErx6rVJHhrz-14" edge="1">
          <mxGeometry relative="1" as="geometry">
            <Array as="points">
              <mxPoint x="1915" y="380" />
              <mxPoint x="935" y="380" />
            </Array>
          </mxGeometry>
        </mxCell>
        <mxCell id="in3rAhRjPtGNcjfJRjm0-28" style="edgeStyle=orthogonalEdgeStyle;rounded=0;orthogonalLoop=1;jettySize=auto;html=1;" parent="1" source="YKO31L50aErx6rVJHhrz-50" target="in3rAhRjPtGNcjfJRjm0-24" edge="1">
          <mxGeometry relative="1" as="geometry" />
        </mxCell>
        <mxCell id="YKO31L50aErx6rVJHhrz-50" value="" style="strokeWidth=2;html=1;shape=mxgraph.flowchart.stored_data;whiteSpace=wrap;" parent="1" vertex="1">
          <mxGeometry x="1862.5" y="420" width="105" height="60" as="geometry" />
        </mxCell>
        <mxCell id="paC2ZWNHH-_En14PZSli-3" style="edgeStyle=orthogonalEdgeStyle;rounded=0;orthogonalLoop=1;jettySize=auto;html=1;" parent="1" source="YKO31L50aErx6rVJHhrz-52" target="YKO31L50aErx6rVJHhrz-53" edge="1">
          <mxGeometry relative="1" as="geometry" />
        </mxCell>
        <mxCell id="YKO31L50aErx6rVJHhrz-52" value="data mhs&amp;nbsp;" style="shape=manualInput;whiteSpace=wrap;html=1;" parent="1" vertex="1">
          <mxGeometry x="2040" y="110" width="130" height="60" as="geometry" />
        </mxCell>
        <mxCell id="paC2ZWNHH-_En14PZSli-4" style="edgeStyle=orthogonalEdgeStyle;rounded=0;orthogonalLoop=1;jettySize=auto;html=1;entryX=0.5;entryY=0;entryDx=0;entryDy=0;entryPerimeter=0;" parent="1" source="YKO31L50aErx6rVJHhrz-53" target="YKO31L50aErx6rVJHhrz-54" edge="1">
          <mxGeometry relative="1" as="geometry" />
        </mxCell>
        <mxCell id="YKO31L50aErx6rVJHhrz-53" value="" style="rounded=0;whiteSpace=wrap;html=1;" parent="1" vertex="1">
          <mxGeometry x="2065" y="230" width="80" height="70" as="geometry" />
        </mxCell>
        <mxCell id="paC2ZWNHH-_En14PZSli-5" style="edgeStyle=orthogonalEdgeStyle;rounded=0;orthogonalLoop=1;jettySize=auto;html=1;entryX=0.25;entryY=1;entryDx=0;entryDy=0;" parent="1" source="YKO31L50aErx6rVJHhrz-54" target="YKO31L50aErx6rVJHhrz-49" edge="1">
          <mxGeometry relative="1" as="geometry">
            <Array as="points">
              <mxPoint x="2090" y="390" />
              <mxPoint x="1895" y="390" />
            </Array>
          </mxGeometry>
        </mxCell>
        <mxCell id="in3rAhRjPtGNcjfJRjm0-29" style="edgeStyle=orthogonalEdgeStyle;rounded=0;orthogonalLoop=1;jettySize=auto;html=1;entryX=0.809;entryY=-0.001;entryDx=0;entryDy=0;entryPerimeter=0;" parent="1" source="YKO31L50aErx6rVJHhrz-54" target="in3rAhRjPtGNcjfJRjm0-24" edge="1">
          <mxGeometry relative="1" as="geometry">
            <Array as="points">
              <mxPoint x="2105" y="500" />
              <mxPoint x="1978" y="500" />
            </Array>
          </mxGeometry>
        </mxCell>
        <mxCell id="YKO31L50aErx6rVJHhrz-54" value="" style="strokeWidth=2;html=1;shape=mxgraph.flowchart.stored_data;whiteSpace=wrap;" parent="1" vertex="1">
          <mxGeometry x="2052.5" y="420" width="105" height="60" as="geometry" />
        </mxCell>
        <mxCell id="in3rAhRjPtGNcjfJRjm0-11" value="" style="rounded=0;whiteSpace=wrap;html=1;" parent="1" vertex="1">
          <mxGeometry x="470" y="580" width="130" height="70" as="geometry" />
        </mxCell>
        <mxCell id="in3rAhRjPtGNcjfJRjm0-19" value="" style="rounded=0;whiteSpace=wrap;html=1;" parent="1" vertex="1">
          <mxGeometry x="1050" y="570" width="142.5" height="80" as="geometry" />
        </mxCell>
        <mxCell id="in3rAhRjPtGNcjfJRjm0-24" value="" style="rounded=0;whiteSpace=wrap;html=1;" parent="1" vertex="1">
          <mxGeometry x="1862.5" y="570" width="142.5" height="80" as="geometry" />
        </mxCell>
        <mxCell id="in3rAhRjPtGNcjfJRjm0-30" value="" style="rounded=0;whiteSpace=wrap;html=1;" parent="1" vertex="1">
          <mxGeometry x="1443.75" y="570" width="142.5" height="80" as="geometry" />
        </mxCell>
      </root>
    </mxGraphModel>
  </diagram>
  <diagram name="Page-1" id="tKhml-ubn733s78gBuDX">
    <mxGraphModel dx="3228" dy="4235" grid="1" gridSize="10" guides="1" tooltips="1" connect="1" arrows="1" fold="1" page="1" pageScale="1" pageWidth="850" pageHeight="1100" math="0" shadow="0">
      <root>
        <mxCell id="0" />
        <mxCell id="1" parent="0" />
        <mxCell id="wR-n9TLMuy0SV4OY1z0G-2" style="edgeStyle=orthogonalEdgeStyle;rounded=0;orthogonalLoop=1;jettySize=auto;html=1;" parent="1" source="wR-n9TLMuy0SV4OY1z0G-1" edge="1">
          <mxGeometry relative="1" as="geometry">
            <mxPoint x="120.68965517241378" y="155" as="targetPoint" />
          </mxGeometry>
        </mxCell>
        <mxCell id="wR-n9TLMuy0SV4OY1z0G-73" style="edgeStyle=orthogonalEdgeStyle;rounded=0;orthogonalLoop=1;jettySize=auto;html=1;entryX=0;entryY=0.5;entryDx=0;entryDy=0;" parent="1" source="wR-n9TLMuy0SV4OY1z0G-1" target="wR-n9TLMuy0SV4OY1z0G-4" edge="1">
          <mxGeometry relative="1" as="geometry">
            <Array as="points">
              <mxPoint x="30" y="180" />
              <mxPoint x="30" y="260" />
            </Array>
          </mxGeometry>
        </mxCell>
        <mxCell id="wR-n9TLMuy0SV4OY1z0G-74" style="edgeStyle=orthogonalEdgeStyle;rounded=0;orthogonalLoop=1;jettySize=auto;html=1;entryX=-0.006;entryY=0.558;entryDx=0;entryDy=0;entryPerimeter=0;" parent="1" source="wR-n9TLMuy0SV4OY1z0G-1" target="wR-n9TLMuy0SV4OY1z0G-5" edge="1">
          <mxGeometry relative="1" as="geometry">
            <Array as="points">
              <mxPoint x="-80" y="385" />
              <mxPoint x="20" y="385" />
            </Array>
          </mxGeometry>
        </mxCell>
        <mxCell id="wR-n9TLMuy0SV4OY1z0G-75" style="edgeStyle=orthogonalEdgeStyle;rounded=0;orthogonalLoop=1;jettySize=auto;html=1;entryX=0;entryY=0.5;entryDx=0;entryDy=0;" parent="1" source="wR-n9TLMuy0SV4OY1z0G-1" target="wR-n9TLMuy0SV4OY1z0G-6" edge="1">
          <mxGeometry relative="1" as="geometry">
            <Array as="points">
              <mxPoint x="-90" y="480" />
            </Array>
          </mxGeometry>
        </mxCell>
        <mxCell id="wR-n9TLMuy0SV4OY1z0G-77" style="edgeStyle=orthogonalEdgeStyle;rounded=0;orthogonalLoop=1;jettySize=auto;html=1;entryX=0;entryY=0.5;entryDx=0;entryDy=0;" parent="1" source="wR-n9TLMuy0SV4OY1z0G-1" target="wR-n9TLMuy0SV4OY1z0G-17" edge="1">
          <mxGeometry relative="1" as="geometry">
            <Array as="points">
              <mxPoint x="-100" y="670" />
            </Array>
          </mxGeometry>
        </mxCell>
        <mxCell id="wR-n9TLMuy0SV4OY1z0G-118" style="edgeStyle=orthogonalEdgeStyle;rounded=0;orthogonalLoop=1;jettySize=auto;html=1;entryX=0;entryY=0.5;entryDx=0;entryDy=0;" parent="1" source="wR-n9TLMuy0SV4OY1z0G-1" target="wR-n9TLMuy0SV4OY1z0G-34" edge="1">
          <mxGeometry relative="1" as="geometry">
            <Array as="points">
              <mxPoint x="-110" y="850" />
            </Array>
          </mxGeometry>
        </mxCell>
        <mxCell id="wR-n9TLMuy0SV4OY1z0G-119" style="edgeStyle=orthogonalEdgeStyle;rounded=0;orthogonalLoop=1;jettySize=auto;html=1;entryX=0;entryY=0.5;entryDx=0;entryDy=0;" parent="1" source="wR-n9TLMuy0SV4OY1z0G-1" target="wR-n9TLMuy0SV4OY1z0G-67" edge="1">
          <mxGeometry relative="1" as="geometry">
            <Array as="points">
              <mxPoint x="-120" y="1030" />
            </Array>
          </mxGeometry>
        </mxCell>
        <mxCell id="wR-n9TLMuy0SV4OY1z0G-120" style="edgeStyle=orthogonalEdgeStyle;rounded=0;orthogonalLoop=1;jettySize=auto;html=1;entryX=0;entryY=0.5;entryDx=0;entryDy=0;" parent="1" source="wR-n9TLMuy0SV4OY1z0G-1" target="wR-n9TLMuy0SV4OY1z0G-71" edge="1">
          <mxGeometry relative="1" as="geometry">
            <Array as="points">
              <mxPoint x="-150" y="155" />
              <mxPoint x="-150" y="1210" />
            </Array>
          </mxGeometry>
        </mxCell>
        <mxCell id="wR-n9TLMuy0SV4OY1z0G-1" value="DAAK" style="rounded=0;whiteSpace=wrap;html=1;" parent="1" vertex="1">
          <mxGeometry x="-130" y="130" width="70" height="50" as="geometry" />
        </mxCell>
        <mxCell id="wR-n9TLMuy0SV4OY1z0G-9" style="edgeStyle=orthogonalEdgeStyle;rounded=0;orthogonalLoop=1;jettySize=auto;html=1;entryX=0.167;entryY=0.5;entryDx=0;entryDy=0;entryPerimeter=0;" parent="1" source="wR-n9TLMuy0SV4OY1z0G-3" target="wR-n9TLMuy0SV4OY1z0G-8" edge="1">
          <mxGeometry relative="1" as="geometry" />
        </mxCell>
        <mxCell id="wR-n9TLMuy0SV4OY1z0G-3" value="Mengelolah data Mahasiswa" style="ellipse;whiteSpace=wrap;html=1;" parent="1" vertex="1">
          <mxGeometry x="120" y="115" width="120" height="80" as="geometry" />
        </mxCell>
        <mxCell id="wR-n9TLMuy0SV4OY1z0G-11" style="edgeStyle=orthogonalEdgeStyle;rounded=0;orthogonalLoop=1;jettySize=auto;html=1;" parent="1" source="wR-n9TLMuy0SV4OY1z0G-4" target="wR-n9TLMuy0SV4OY1z0G-10" edge="1">
          <mxGeometry relative="1" as="geometry" />
        </mxCell>
        <mxCell id="wR-n9TLMuy0SV4OY1z0G-4" value="mengelolah data dosen" style="ellipse;whiteSpace=wrap;html=1;" parent="1" vertex="1">
          <mxGeometry x="120" y="220" width="120" height="80" as="geometry" />
        </mxCell>
        <mxCell id="wR-n9TLMuy0SV4OY1z0G-14" style="edgeStyle=orthogonalEdgeStyle;rounded=0;orthogonalLoop=1;jettySize=auto;html=1;" parent="1" source="wR-n9TLMuy0SV4OY1z0G-5" target="wR-n9TLMuy0SV4OY1z0G-13" edge="1">
          <mxGeometry relative="1" as="geometry" />
        </mxCell>
        <mxCell id="wR-n9TLMuy0SV4OY1z0G-5" value="mengelolah data jurusan" style="ellipse;whiteSpace=wrap;html=1;" parent="1" vertex="1">
          <mxGeometry x="120" y="340" width="120" height="80" as="geometry" />
        </mxCell>
        <mxCell id="wR-n9TLMuy0SV4OY1z0G-16" style="edgeStyle=orthogonalEdgeStyle;rounded=0;orthogonalLoop=1;jettySize=auto;html=1;" parent="1" source="wR-n9TLMuy0SV4OY1z0G-6" target="wR-n9TLMuy0SV4OY1z0G-15" edge="1">
          <mxGeometry relative="1" as="geometry" />
        </mxCell>
        <mxCell id="wR-n9TLMuy0SV4OY1z0G-6" value="mengeolah data matakuliah" style="ellipse;whiteSpace=wrap;html=1;" parent="1" vertex="1">
          <mxGeometry x="120" y="440" width="120" height="80" as="geometry" />
        </mxCell>
        <mxCell id="wR-n9TLMuy0SV4OY1z0G-37" style="edgeStyle=orthogonalEdgeStyle;rounded=0;orthogonalLoop=1;jettySize=auto;html=1;entryX=0.964;entryY=0.291;entryDx=0;entryDy=0;entryPerimeter=0;" parent="1" source="wR-n9TLMuy0SV4OY1z0G-8" target="wR-n9TLMuy0SV4OY1z0G-34" edge="1">
          <mxGeometry relative="1" as="geometry">
            <Array as="points">
              <mxPoint x="590" y="155" />
              <mxPoint x="590" y="833" />
            </Array>
          </mxGeometry>
        </mxCell>
        <mxCell id="wR-n9TLMuy0SV4OY1z0G-8" value="tabel mhs" style="strokeWidth=2;html=1;shape=mxgraph.flowchart.database;whiteSpace=wrap;" parent="1" vertex="1">
          <mxGeometry x="430" y="125" width="60" height="60" as="geometry" />
        </mxCell>
        <mxCell id="wR-n9TLMuy0SV4OY1z0G-23" style="edgeStyle=orthogonalEdgeStyle;rounded=0;orthogonalLoop=1;jettySize=auto;html=1;entryX=0.5;entryY=0;entryDx=0;entryDy=0;" parent="1" source="wR-n9TLMuy0SV4OY1z0G-10" target="wR-n9TLMuy0SV4OY1z0G-17" edge="1">
          <mxGeometry relative="1" as="geometry">
            <Array as="points">
              <mxPoint x="570" y="260" />
              <mxPoint x="570" y="610" />
              <mxPoint x="180" y="610" />
            </Array>
          </mxGeometry>
        </mxCell>
        <mxCell id="wR-n9TLMuy0SV4OY1z0G-10" value="tabel Dosen" style="strokeWidth=2;html=1;shape=mxgraph.flowchart.database;whiteSpace=wrap;" parent="1" vertex="1">
          <mxGeometry x="430" y="230" width="60" height="60" as="geometry" />
        </mxCell>
        <mxCell id="wR-n9TLMuy0SV4OY1z0G-27" style="edgeStyle=orthogonalEdgeStyle;rounded=0;orthogonalLoop=1;jettySize=auto;html=1;entryX=0.343;entryY=0.007;entryDx=0;entryDy=0;entryPerimeter=0;" parent="1" source="wR-n9TLMuy0SV4OY1z0G-13" target="wR-n9TLMuy0SV4OY1z0G-17" edge="1">
          <mxGeometry relative="1" as="geometry">
            <Array as="points">
              <mxPoint x="530" y="380" />
              <mxPoint x="530" y="580" />
              <mxPoint x="161" y="580" />
            </Array>
          </mxGeometry>
        </mxCell>
        <mxCell id="wR-n9TLMuy0SV4OY1z0G-13" value="tabel jurusan" style="strokeWidth=2;html=1;shape=mxgraph.flowchart.database;whiteSpace=wrap;" parent="1" vertex="1">
          <mxGeometry x="430" y="350" width="60" height="60" as="geometry" />
        </mxCell>
        <mxCell id="wR-n9TLMuy0SV4OY1z0G-30" style="edgeStyle=orthogonalEdgeStyle;rounded=0;orthogonalLoop=1;jettySize=auto;html=1;entryX=0;entryY=0;entryDx=0;entryDy=0;" parent="1" source="wR-n9TLMuy0SV4OY1z0G-15" target="wR-n9TLMuy0SV4OY1z0G-17" edge="1">
          <mxGeometry relative="1" as="geometry">
            <Array as="points">
              <mxPoint x="460" y="540" />
              <mxPoint x="138" y="540" />
            </Array>
          </mxGeometry>
        </mxCell>
        <mxCell id="wR-n9TLMuy0SV4OY1z0G-15" value="tb matakuliah" style="strokeWidth=2;html=1;shape=mxgraph.flowchart.database;whiteSpace=wrap;" parent="1" vertex="1">
          <mxGeometry x="430" y="440" width="60" height="70" as="geometry" />
        </mxCell>
        <mxCell id="wR-n9TLMuy0SV4OY1z0G-33" style="edgeStyle=orthogonalEdgeStyle;rounded=0;orthogonalLoop=1;jettySize=auto;html=1;" parent="1" source="wR-n9TLMuy0SV4OY1z0G-17" target="wR-n9TLMuy0SV4OY1z0G-31" edge="1">
          <mxGeometry relative="1" as="geometry" />
        </mxCell>
        <mxCell id="wR-n9TLMuy0SV4OY1z0G-17" value="mengelolah data jadwal" style="ellipse;whiteSpace=wrap;html=1;" parent="1" vertex="1">
          <mxGeometry x="120" y="630" width="120" height="80" as="geometry" />
        </mxCell>
        <mxCell id="wR-n9TLMuy0SV4OY1z0G-35" style="edgeStyle=orthogonalEdgeStyle;rounded=0;orthogonalLoop=1;jettySize=auto;html=1;entryX=0.5;entryY=0;entryDx=0;entryDy=0;" parent="1" source="wR-n9TLMuy0SV4OY1z0G-31" target="wR-n9TLMuy0SV4OY1z0G-34" edge="1">
          <mxGeometry relative="1" as="geometry">
            <Array as="points">
              <mxPoint x="460" y="790" />
              <mxPoint x="180" y="790" />
            </Array>
          </mxGeometry>
        </mxCell>
        <mxCell id="wR-n9TLMuy0SV4OY1z0G-31" value="tb jadwal" style="strokeWidth=2;html=1;shape=mxgraph.flowchart.database;whiteSpace=wrap;" parent="1" vertex="1">
          <mxGeometry x="430" y="640" width="60" height="60" as="geometry" />
        </mxCell>
        <mxCell id="wR-n9TLMuy0SV4OY1z0G-66" style="edgeStyle=orthogonalEdgeStyle;rounded=0;orthogonalLoop=1;jettySize=auto;html=1;entryX=0.5;entryY=0;entryDx=0;entryDy=0;entryPerimeter=0;" parent="1" source="wR-n9TLMuy0SV4OY1z0G-34" target="wR-n9TLMuy0SV4OY1z0G-64" edge="1">
          <mxGeometry relative="1" as="geometry">
            <Array as="points">
              <mxPoint x="510" y="870" />
            </Array>
          </mxGeometry>
        </mxCell>
        <mxCell id="wR-n9TLMuy0SV4OY1z0G-34" value="mengelolah data KRS" style="ellipse;whiteSpace=wrap;html=1;" parent="1" vertex="1">
          <mxGeometry x="120" y="810" width="120" height="80" as="geometry" />
        </mxCell>
        <mxCell id="wR-n9TLMuy0SV4OY1z0G-39" style="edgeStyle=orthogonalEdgeStyle;rounded=0;orthogonalLoop=1;jettySize=auto;html=1;entryX=1;entryY=0.5;entryDx=0;entryDy=0;" parent="1" source="wR-n9TLMuy0SV4OY1z0G-38" target="wR-n9TLMuy0SV4OY1z0G-34" edge="1">
          <mxGeometry relative="1" as="geometry">
            <Array as="points">
              <mxPoint x="630" y="405" />
              <mxPoint x="630" y="850" />
            </Array>
          </mxGeometry>
        </mxCell>
        <mxCell id="o-8nTQ83cVyLMwu0-6GU-35" style="edgeStyle=orthogonalEdgeStyle;rounded=0;orthogonalLoop=1;jettySize=auto;html=1;entryX=0.416;entryY=0.02;entryDx=0;entryDy=0;entryPerimeter=0;" edge="1" parent="1" source="wR-n9TLMuy0SV4OY1z0G-38" target="o-8nTQ83cVyLMwu0-6GU-1">
          <mxGeometry relative="1" as="geometry">
            <Array as="points">
              <mxPoint x="820" y="50" />
              <mxPoint x="177" y="50" />
            </Array>
          </mxGeometry>
        </mxCell>
        <mxCell id="wR-n9TLMuy0SV4OY1z0G-38" value="Mhs" style="rounded=0;whiteSpace=wrap;html=1;" parent="1" vertex="1">
          <mxGeometry x="770" y="380" width="90" height="50" as="geometry" />
        </mxCell>
        <mxCell id="wR-n9TLMuy0SV4OY1z0G-41" style="edgeStyle=orthogonalEdgeStyle;rounded=0;orthogonalLoop=1;jettySize=auto;html=1;entryX=0.5;entryY=1;entryDx=0;entryDy=0;" parent="1" source="wR-n9TLMuy0SV4OY1z0G-40" target="wR-n9TLMuy0SV4OY1z0G-38" edge="1">
          <mxGeometry relative="1" as="geometry" />
        </mxCell>
        <mxCell id="wR-n9TLMuy0SV4OY1z0G-40" value="Mengunduh matri&amp;nbsp; kuliah" style="ellipse;whiteSpace=wrap;html=1;" parent="1" vertex="1">
          <mxGeometry x="755" y="540" width="120" height="80" as="geometry" />
        </mxCell>
        <mxCell id="wR-n9TLMuy0SV4OY1z0G-44" style="edgeStyle=orthogonalEdgeStyle;rounded=0;orthogonalLoop=1;jettySize=auto;html=1;" parent="1" source="wR-n9TLMuy0SV4OY1z0G-42" target="wR-n9TLMuy0SV4OY1z0G-40" edge="1">
          <mxGeometry relative="1" as="geometry">
            <mxPoint x="930" y="560" as="targetPoint" />
            <Array as="points">
              <mxPoint x="910" y="690" />
              <mxPoint x="910" y="560" />
            </Array>
          </mxGeometry>
        </mxCell>
        <mxCell id="wR-n9TLMuy0SV4OY1z0G-42" value="tb materi&lt;br&gt;kuliah" style="strokeWidth=2;html=1;shape=mxgraph.flowchart.database;whiteSpace=wrap;" parent="1" vertex="1">
          <mxGeometry x="800" y="660" width="60" height="60" as="geometry" />
        </mxCell>
        <mxCell id="wR-n9TLMuy0SV4OY1z0G-58" style="edgeStyle=orthogonalEdgeStyle;rounded=0;orthogonalLoop=1;jettySize=auto;html=1;entryX=0;entryY=0.5;entryDx=0;entryDy=0;exitX=0.569;exitY=1.008;exitDx=0;exitDy=0;exitPerimeter=0;" parent="1" source="wR-n9TLMuy0SV4OY1z0G-46" target="wR-n9TLMuy0SV4OY1z0G-57" edge="1">
          <mxGeometry relative="1" as="geometry">
            <Array as="points">
              <mxPoint x="950" y="871" />
              <mxPoint x="950" y="935" />
            </Array>
          </mxGeometry>
        </mxCell>
        <mxCell id="wR-n9TLMuy0SV4OY1z0G-46" value="proses / mengelola data materi kuliah" style="ellipse;whiteSpace=wrap;html=1;" parent="1" vertex="1">
          <mxGeometry x="765" y="790" width="120" height="80" as="geometry" />
        </mxCell>
        <mxCell id="wR-n9TLMuy0SV4OY1z0G-48" style="edgeStyle=orthogonalEdgeStyle;rounded=0;orthogonalLoop=1;jettySize=auto;html=1;entryX=0.003;entryY=0.37;entryDx=0;entryDy=0;entryPerimeter=0;" parent="1" source="wR-n9TLMuy0SV4OY1z0G-46" target="wR-n9TLMuy0SV4OY1z0G-42" edge="1">
          <mxGeometry relative="1" as="geometry">
            <mxPoint x="710" y="690" as="targetPoint" />
            <mxPoint x="765" y="830" as="sourcePoint" />
            <Array as="points">
              <mxPoint x="740" y="820" />
              <mxPoint x="740" y="682" />
            </Array>
          </mxGeometry>
        </mxCell>
        <mxCell id="wR-n9TLMuy0SV4OY1z0G-52" style="edgeStyle=orthogonalEdgeStyle;rounded=0;orthogonalLoop=1;jettySize=auto;html=1;entryX=0.975;entryY=0.325;entryDx=0;entryDy=0;entryPerimeter=0;" parent="1" source="wR-n9TLMuy0SV4OY1z0G-49" target="wR-n9TLMuy0SV4OY1z0G-46" edge="1">
          <mxGeometry relative="1" as="geometry">
            <Array as="points">
              <mxPoint x="930" y="670" />
              <mxPoint x="930" y="816" />
            </Array>
          </mxGeometry>
        </mxCell>
        <mxCell id="wR-n9TLMuy0SV4OY1z0G-49" value="tb mahasiswa" style="strokeWidth=2;html=1;shape=mxgraph.flowchart.database;whiteSpace=wrap;" parent="1" vertex="1">
          <mxGeometry x="970" y="640" width="60" height="60" as="geometry" />
        </mxCell>
        <mxCell id="wR-n9TLMuy0SV4OY1z0G-53" style="edgeStyle=orthogonalEdgeStyle;rounded=0;orthogonalLoop=1;jettySize=auto;html=1;entryX=1.005;entryY=0.54;entryDx=0;entryDy=0;entryPerimeter=0;" parent="1" source="wR-n9TLMuy0SV4OY1z0G-50" target="wR-n9TLMuy0SV4OY1z0G-46" edge="1">
          <mxGeometry relative="1" as="geometry">
            <mxPoint x="950" y="840" as="targetPoint" />
            <Array as="points">
              <mxPoint x="950" y="740" />
              <mxPoint x="950" y="833" />
            </Array>
          </mxGeometry>
        </mxCell>
        <mxCell id="wR-n9TLMuy0SV4OY1z0G-50" value="tb jurusan" style="strokeWidth=2;html=1;shape=mxgraph.flowchart.database;whiteSpace=wrap;" parent="1" vertex="1">
          <mxGeometry x="1030" y="710" width="60" height="60" as="geometry" />
        </mxCell>
        <mxCell id="wR-n9TLMuy0SV4OY1z0G-56" style="edgeStyle=orthogonalEdgeStyle;rounded=0;orthogonalLoop=1;jettySize=auto;html=1;" parent="1" source="wR-n9TLMuy0SV4OY1z0G-51" target="wR-n9TLMuy0SV4OY1z0G-46" edge="1">
          <mxGeometry relative="1" as="geometry">
            <Array as="points">
              <mxPoint x="958" y="840" />
              <mxPoint x="958" y="853" />
            </Array>
          </mxGeometry>
        </mxCell>
        <mxCell id="wR-n9TLMuy0SV4OY1z0G-51" value="tb matakuliah" style="strokeWidth=2;html=1;shape=mxgraph.flowchart.database;whiteSpace=wrap;" parent="1" vertex="1">
          <mxGeometry x="1030" y="800" width="60" height="60" as="geometry" />
        </mxCell>
        <mxCell id="wR-n9TLMuy0SV4OY1z0G-103" style="edgeStyle=orthogonalEdgeStyle;rounded=0;orthogonalLoop=1;jettySize=auto;html=1;entryX=1;entryY=0.5;entryDx=0;entryDy=0;" parent="1" source="wR-n9TLMuy0SV4OY1z0G-57" target="wR-n9TLMuy0SV4OY1z0G-102" edge="1">
          <mxGeometry relative="1" as="geometry">
            <Array as="points">
              <mxPoint x="1060" y="1060" />
            </Array>
          </mxGeometry>
        </mxCell>
        <mxCell id="wR-n9TLMuy0SV4OY1z0G-57" value="dosen" style="rounded=0;whiteSpace=wrap;html=1;" parent="1" vertex="1">
          <mxGeometry x="1015" y="910" width="90" height="50" as="geometry" />
        </mxCell>
        <mxCell id="wR-n9TLMuy0SV4OY1z0G-68" style="edgeStyle=orthogonalEdgeStyle;rounded=0;orthogonalLoop=1;jettySize=auto;html=1;" parent="1" source="wR-n9TLMuy0SV4OY1z0G-64" target="wR-n9TLMuy0SV4OY1z0G-67" edge="1">
          <mxGeometry relative="1" as="geometry">
            <Array as="points">
              <mxPoint x="510" y="970" />
              <mxPoint x="180" y="970" />
            </Array>
          </mxGeometry>
        </mxCell>
        <mxCell id="wR-n9TLMuy0SV4OY1z0G-101" style="edgeStyle=orthogonalEdgeStyle;rounded=0;orthogonalLoop=1;jettySize=auto;html=1;entryX=1;entryY=0.5;entryDx=0;entryDy=0;" parent="1" source="wR-n9TLMuy0SV4OY1z0G-64" target="wR-n9TLMuy0SV4OY1z0G-71" edge="1">
          <mxGeometry relative="1" as="geometry">
            <Array as="points">
              <mxPoint x="590" y="930" />
              <mxPoint x="590" y="1210" />
            </Array>
          </mxGeometry>
        </mxCell>
        <mxCell id="wR-n9TLMuy0SV4OY1z0G-104" style="edgeStyle=orthogonalEdgeStyle;rounded=0;orthogonalLoop=1;jettySize=auto;html=1;entryX=0.61;entryY=-0.007;entryDx=0;entryDy=0;entryPerimeter=0;" parent="1" source="wR-n9TLMuy0SV4OY1z0G-64" target="wR-n9TLMuy0SV4OY1z0G-102" edge="1">
          <mxGeometry relative="1" as="geometry">
            <Array as="points">
              <mxPoint x="838" y="920" />
            </Array>
          </mxGeometry>
        </mxCell>
        <mxCell id="wR-n9TLMuy0SV4OY1z0G-121" style="edgeStyle=orthogonalEdgeStyle;rounded=0;orthogonalLoop=1;jettySize=auto;html=1;entryX=0.002;entryY=0.57;entryDx=0;entryDy=0;entryPerimeter=0;" parent="1" source="wR-n9TLMuy0SV4OY1z0G-64" target="wR-n9TLMuy0SV4OY1z0G-46" edge="1">
          <mxGeometry relative="1" as="geometry">
            <Array as="points">
              <mxPoint x="653" y="910" />
              <mxPoint x="653" y="836" />
            </Array>
          </mxGeometry>
        </mxCell>
        <mxCell id="wR-n9TLMuy0SV4OY1z0G-64" value="tb KRS" style="strokeWidth=2;html=1;shape=mxgraph.flowchart.database;whiteSpace=wrap;" parent="1" vertex="1">
          <mxGeometry x="480" y="900" width="60" height="60" as="geometry" />
        </mxCell>
        <mxCell id="wR-n9TLMuy0SV4OY1z0G-70" style="edgeStyle=orthogonalEdgeStyle;rounded=0;orthogonalLoop=1;jettySize=auto;html=1;" parent="1" source="wR-n9TLMuy0SV4OY1z0G-67" target="wR-n9TLMuy0SV4OY1z0G-69" edge="1">
          <mxGeometry relative="1" as="geometry" />
        </mxCell>
        <mxCell id="wR-n9TLMuy0SV4OY1z0G-67" value="mengelolah data presensi" style="ellipse;whiteSpace=wrap;html=1;" parent="1" vertex="1">
          <mxGeometry x="120" y="990" width="120" height="80" as="geometry" />
        </mxCell>
        <mxCell id="wR-n9TLMuy0SV4OY1z0G-72" style="edgeStyle=orthogonalEdgeStyle;rounded=0;orthogonalLoop=1;jettySize=auto;html=1;" parent="1" source="wR-n9TLMuy0SV4OY1z0G-69" target="wR-n9TLMuy0SV4OY1z0G-71" edge="1">
          <mxGeometry relative="1" as="geometry">
            <Array as="points">
              <mxPoint x="510" y="1130" />
              <mxPoint x="180" y="1130" />
            </Array>
          </mxGeometry>
        </mxCell>
        <mxCell id="wR-n9TLMuy0SV4OY1z0G-69" value="tb presensi" style="strokeWidth=2;html=1;shape=mxgraph.flowchart.database;whiteSpace=wrap;" parent="1" vertex="1">
          <mxGeometry x="480" y="1000" width="60" height="60" as="geometry" />
        </mxCell>
        <mxCell id="wR-n9TLMuy0SV4OY1z0G-81" value="" style="edgeStyle=orthogonalEdgeStyle;rounded=0;orthogonalLoop=1;jettySize=auto;html=1;" parent="1" source="wR-n9TLMuy0SV4OY1z0G-71" target="wR-n9TLMuy0SV4OY1z0G-78" edge="1">
          <mxGeometry relative="1" as="geometry" />
        </mxCell>
        <mxCell id="wR-n9TLMuy0SV4OY1z0G-71" value="mengelolah data KHS" style="ellipse;whiteSpace=wrap;html=1;" parent="1" vertex="1">
          <mxGeometry x="120" y="1170" width="120" height="80" as="geometry" />
        </mxCell>
        <mxCell id="wR-n9TLMuy0SV4OY1z0G-83" style="edgeStyle=orthogonalEdgeStyle;rounded=0;orthogonalLoop=1;jettySize=auto;html=1;" parent="1" source="wR-n9TLMuy0SV4OY1z0G-78" target="wR-n9TLMuy0SV4OY1z0G-82" edge="1">
          <mxGeometry relative="1" as="geometry">
            <Array as="points">
              <mxPoint x="240" y="1330" />
            </Array>
          </mxGeometry>
        </mxCell>
        <mxCell id="wR-n9TLMuy0SV4OY1z0G-78" value="tabel khs" style="strokeWidth=2;html=1;shape=mxgraph.flowchart.database;whiteSpace=wrap;" parent="1" vertex="1">
          <mxGeometry x="150" y="1300" width="60" height="60" as="geometry" />
        </mxCell>
        <mxCell id="wR-n9TLMuy0SV4OY1z0G-116" style="edgeStyle=orthogonalEdgeStyle;rounded=0;orthogonalLoop=1;jettySize=auto;html=1;entryX=0.75;entryY=1;entryDx=0;entryDy=0;" parent="1" source="wR-n9TLMuy0SV4OY1z0G-82" target="wR-n9TLMuy0SV4OY1z0G-57" edge="1">
          <mxGeometry relative="1" as="geometry">
            <Array as="points">
              <mxPoint x="1083" y="1490" />
            </Array>
          </mxGeometry>
        </mxCell>
        <mxCell id="wR-n9TLMuy0SV4OY1z0G-117" style="edgeStyle=orthogonalEdgeStyle;rounded=0;orthogonalLoop=1;jettySize=auto;html=1;entryX=1;entryY=0.25;entryDx=0;entryDy=0;" parent="1" source="wR-n9TLMuy0SV4OY1z0G-82" target="wR-n9TLMuy0SV4OY1z0G-38" edge="1">
          <mxGeometry relative="1" as="geometry">
            <Array as="points">
              <mxPoint x="1130" y="1510" />
              <mxPoint x="1130" y="392" />
            </Array>
          </mxGeometry>
        </mxCell>
        <mxCell id="msFb8L_IAYxuIuygZLw--1" style="edgeStyle=orthogonalEdgeStyle;rounded=0;orthogonalLoop=1;jettySize=auto;html=1;entryX=0.5;entryY=0;entryDx=0;entryDy=0;" parent="1" source="wR-n9TLMuy0SV4OY1z0G-82" target="wR-n9TLMuy0SV4OY1z0G-1" edge="1">
          <mxGeometry relative="1" as="geometry">
            <mxPoint x="-200" y="39.999999999999886" as="targetPoint" />
            <Array as="points">
              <mxPoint x="210" y="1860" />
              <mxPoint x="-190" y="1860" />
              <mxPoint x="-190" y="110" />
              <mxPoint x="-95" y="110" />
            </Array>
          </mxGeometry>
        </mxCell>
        <mxCell id="wR-n9TLMuy0SV4OY1z0G-82" value="membuat laporan" style="ellipse;whiteSpace=wrap;html=1;" parent="1" vertex="1">
          <mxGeometry x="135" y="1440" width="120" height="80" as="geometry" />
        </mxCell>
        <mxCell id="wR-n9TLMuy0SV4OY1z0G-85" style="edgeStyle=orthogonalEdgeStyle;rounded=0;orthogonalLoop=1;jettySize=auto;html=1;" parent="1" source="wR-n9TLMuy0SV4OY1z0G-84" target="wR-n9TLMuy0SV4OY1z0G-82" edge="1">
          <mxGeometry relative="1" as="geometry" />
        </mxCell>
        <mxCell id="wR-n9TLMuy0SV4OY1z0G-84" value="tabel nilai" style="strokeWidth=2;html=1;shape=mxgraph.flowchart.database;whiteSpace=wrap;" parent="1" vertex="1">
          <mxGeometry x="410" y="1380" width="60" height="60" as="geometry" />
        </mxCell>
        <mxCell id="wR-n9TLMuy0SV4OY1z0G-93" style="edgeStyle=orthogonalEdgeStyle;rounded=0;orthogonalLoop=1;jettySize=auto;html=1;entryX=0.461;entryY=-0.055;entryDx=0;entryDy=0;entryPerimeter=0;" parent="1" source="wR-n9TLMuy0SV4OY1z0G-86" target="wR-n9TLMuy0SV4OY1z0G-82" edge="1">
          <mxGeometry relative="1" as="geometry" />
        </mxCell>
        <mxCell id="wR-n9TLMuy0SV4OY1z0G-86" value="tabel mahasiswa" style="strokeWidth=2;html=1;shape=mxgraph.flowchart.database;whiteSpace=wrap;" parent="1" vertex="1">
          <mxGeometry y="1350" width="60" height="70" as="geometry" />
        </mxCell>
        <mxCell id="wR-n9TLMuy0SV4OY1z0G-94" style="edgeStyle=orthogonalEdgeStyle;rounded=0;orthogonalLoop=1;jettySize=auto;html=1;entryX=0.227;entryY=0.103;entryDx=0;entryDy=0;entryPerimeter=0;" parent="1" source="wR-n9TLMuy0SV4OY1z0G-87" target="wR-n9TLMuy0SV4OY1z0G-82" edge="1">
          <mxGeometry relative="1" as="geometry" />
        </mxCell>
        <mxCell id="wR-n9TLMuy0SV4OY1z0G-87" value="tabel dosen" style="strokeWidth=2;html=1;shape=mxgraph.flowchart.database;whiteSpace=wrap;" parent="1" vertex="1">
          <mxGeometry x="-80" y="1430" width="60" height="60" as="geometry" />
        </mxCell>
        <mxCell id="wR-n9TLMuy0SV4OY1z0G-95" style="edgeStyle=orthogonalEdgeStyle;rounded=0;orthogonalLoop=1;jettySize=auto;html=1;entryX=0.011;entryY=0.399;entryDx=0;entryDy=0;entryPerimeter=0;" parent="1" source="wR-n9TLMuy0SV4OY1z0G-88" target="wR-n9TLMuy0SV4OY1z0G-82" edge="1">
          <mxGeometry relative="1" as="geometry">
            <Array as="points">
              <mxPoint x="-60" y="1500" />
              <mxPoint x="40" y="1500" />
              <mxPoint x="40" y="1472" />
            </Array>
          </mxGeometry>
        </mxCell>
        <mxCell id="wR-n9TLMuy0SV4OY1z0G-88" value="tabel jurusan" style="strokeWidth=2;html=1;shape=mxgraph.flowchart.database;whiteSpace=wrap;" parent="1" vertex="1">
          <mxGeometry x="-90" y="1510" width="60" height="60" as="geometry" />
        </mxCell>
        <mxCell id="wR-n9TLMuy0SV4OY1z0G-96" style="edgeStyle=orthogonalEdgeStyle;rounded=0;orthogonalLoop=1;jettySize=auto;html=1;entryX=-0.002;entryY=0.575;entryDx=0;entryDy=0;entryPerimeter=0;exitX=0.928;exitY=0.117;exitDx=0;exitDy=0;exitPerimeter=0;" parent="1" source="wR-n9TLMuy0SV4OY1z0G-89" target="wR-n9TLMuy0SV4OY1z0G-82" edge="1">
          <mxGeometry relative="1" as="geometry">
            <Array as="points">
              <mxPoint x="-24" y="1580" />
              <mxPoint x="57" y="1580" />
              <mxPoint x="57" y="1486" />
            </Array>
          </mxGeometry>
        </mxCell>
        <mxCell id="wR-n9TLMuy0SV4OY1z0G-89" value="tabel mata kuliah" style="strokeWidth=2;html=1;shape=mxgraph.flowchart.database;whiteSpace=wrap;" parent="1" vertex="1">
          <mxGeometry x="-80" y="1580" width="60" height="60" as="geometry" />
        </mxCell>
        <mxCell id="wR-n9TLMuy0SV4OY1z0G-98" style="edgeStyle=orthogonalEdgeStyle;rounded=0;orthogonalLoop=1;jettySize=auto;html=1;entryX=0.006;entryY=0.676;entryDx=0;entryDy=0;entryPerimeter=0;" parent="1" source="wR-n9TLMuy0SV4OY1z0G-90" target="wR-n9TLMuy0SV4OY1z0G-82" edge="1">
          <mxGeometry relative="1" as="geometry">
            <Array as="points">
              <mxPoint x="90" y="1670" />
              <mxPoint x="90" y="1494" />
            </Array>
          </mxGeometry>
        </mxCell>
        <mxCell id="wR-n9TLMuy0SV4OY1z0G-90" value="tabel jadwal" style="strokeWidth=2;html=1;shape=mxgraph.flowchart.database;whiteSpace=wrap;" parent="1" vertex="1">
          <mxGeometry x="-60" y="1660" width="60" height="60" as="geometry" />
        </mxCell>
        <mxCell id="wR-n9TLMuy0SV4OY1z0G-99" style="edgeStyle=orthogonalEdgeStyle;rounded=0;orthogonalLoop=1;jettySize=auto;html=1;entryX=0;entryY=1;entryDx=0;entryDy=0;" parent="1" source="wR-n9TLMuy0SV4OY1z0G-91" target="wR-n9TLMuy0SV4OY1z0G-82" edge="1">
          <mxGeometry relative="1" as="geometry" />
        </mxCell>
        <mxCell id="wR-n9TLMuy0SV4OY1z0G-91" value="tabel krs" style="strokeWidth=2;html=1;shape=mxgraph.flowchart.database;whiteSpace=wrap;" parent="1" vertex="1">
          <mxGeometry x="-10" y="1730" width="60" height="60" as="geometry" />
        </mxCell>
        <mxCell id="wR-n9TLMuy0SV4OY1z0G-100" style="edgeStyle=orthogonalEdgeStyle;rounded=0;orthogonalLoop=1;jettySize=auto;html=1;entryX=0.425;entryY=1.023;entryDx=0;entryDy=0;entryPerimeter=0;" parent="1" source="wR-n9TLMuy0SV4OY1z0G-92" target="wR-n9TLMuy0SV4OY1z0G-82" edge="1">
          <mxGeometry relative="1" as="geometry">
            <Array as="points">
              <mxPoint x="180" y="1810" />
              <mxPoint x="180" y="1650" />
              <mxPoint x="186" y="1650" />
            </Array>
          </mxGeometry>
        </mxCell>
        <mxCell id="wR-n9TLMuy0SV4OY1z0G-92" value="tabel presensi" style="strokeWidth=2;html=1;shape=mxgraph.flowchart.database;whiteSpace=wrap;" parent="1" vertex="1">
          <mxGeometry x="20" y="1790" width="60" height="60" as="geometry" />
        </mxCell>
        <mxCell id="wR-n9TLMuy0SV4OY1z0G-106" style="edgeStyle=orthogonalEdgeStyle;rounded=0;orthogonalLoop=1;jettySize=auto;html=1;entryX=0.5;entryY=0;entryDx=0;entryDy=0;entryPerimeter=0;" parent="1" source="wR-n9TLMuy0SV4OY1z0G-102" target="wR-n9TLMuy0SV4OY1z0G-105" edge="1">
          <mxGeometry relative="1" as="geometry" />
        </mxCell>
        <mxCell id="wR-n9TLMuy0SV4OY1z0G-102" value="proses data nilai" style="ellipse;whiteSpace=wrap;html=1;" parent="1" vertex="1">
          <mxGeometry x="765" y="1020" width="120" height="80" as="geometry" />
        </mxCell>
        <mxCell id="wR-n9TLMuy0SV4OY1z0G-115" style="edgeStyle=orthogonalEdgeStyle;rounded=0;orthogonalLoop=1;jettySize=auto;html=1;entryX=1;entryY=1;entryDx=0;entryDy=0;" parent="1" source="wR-n9TLMuy0SV4OY1z0G-105" target="wR-n9TLMuy0SV4OY1z0G-71" edge="1">
          <mxGeometry relative="1" as="geometry">
            <Array as="points">
              <mxPoint x="825" y="1238" />
            </Array>
          </mxGeometry>
        </mxCell>
        <mxCell id="wR-n9TLMuy0SV4OY1z0G-105" value="tb nilai" style="strokeWidth=2;html=1;shape=mxgraph.flowchart.database;whiteSpace=wrap;" parent="1" vertex="1">
          <mxGeometry x="795" y="1170" width="60" height="60" as="geometry" />
        </mxCell>
        <mxCell id="wR-n9TLMuy0SV4OY1z0G-112" style="edgeStyle=orthogonalEdgeStyle;rounded=0;orthogonalLoop=1;jettySize=auto;html=1;entryX=0;entryY=1;entryDx=0;entryDy=0;" parent="1" source="wR-n9TLMuy0SV4OY1z0G-107" target="wR-n9TLMuy0SV4OY1z0G-102" edge="1">
          <mxGeometry relative="1" as="geometry" />
        </mxCell>
        <mxCell id="wR-n9TLMuy0SV4OY1z0G-107" value="tb matakuliah" style="strokeWidth=2;html=1;shape=mxgraph.flowchart.database;whiteSpace=wrap;" parent="1" vertex="1">
          <mxGeometry x="705" y="1140" width="60" height="60" as="geometry" />
        </mxCell>
        <mxCell id="wR-n9TLMuy0SV4OY1z0G-111" style="edgeStyle=orthogonalEdgeStyle;rounded=0;orthogonalLoop=1;jettySize=auto;html=1;entryX=0.017;entryY=0.347;entryDx=0;entryDy=0;entryPerimeter=0;" parent="1" source="wR-n9TLMuy0SV4OY1z0G-108" target="wR-n9TLMuy0SV4OY1z0G-102" edge="1">
          <mxGeometry relative="1" as="geometry" />
        </mxCell>
        <mxCell id="wR-n9TLMuy0SV4OY1z0G-108" value="tb jurusan" style="strokeWidth=2;html=1;shape=mxgraph.flowchart.database;whiteSpace=wrap;" parent="1" vertex="1">
          <mxGeometry x="660" y="1060" width="60" height="60" as="geometry" />
        </mxCell>
        <mxCell id="wR-n9TLMuy0SV4OY1z0G-110" style="edgeStyle=orthogonalEdgeStyle;rounded=0;orthogonalLoop=1;jettySize=auto;html=1;entryX=0.298;entryY=0.003;entryDx=0;entryDy=0;entryPerimeter=0;" parent="1" source="wR-n9TLMuy0SV4OY1z0G-109" target="wR-n9TLMuy0SV4OY1z0G-102" edge="1">
          <mxGeometry relative="1" as="geometry" />
        </mxCell>
        <mxCell id="wR-n9TLMuy0SV4OY1z0G-109" value="tb mahasiswa" style="strokeWidth=2;html=1;shape=mxgraph.flowchart.database;whiteSpace=wrap;" parent="1" vertex="1">
          <mxGeometry x="660" y="970" width="60" height="60" as="geometry" />
        </mxCell>
        <mxCell id="o-8nTQ83cVyLMwu0-6GU-1" value="1" style="text;html=1;align=center;verticalAlign=middle;resizable=0;points=[];autosize=1;strokeColor=none;fillColor=none;" vertex="1" parent="1">
          <mxGeometry x="165" y="115" width="30" height="30" as="geometry" />
        </mxCell>
        <mxCell id="o-8nTQ83cVyLMwu0-6GU-3" value="2" style="text;html=1;align=center;verticalAlign=middle;resizable=0;points=[];autosize=1;strokeColor=none;fillColor=none;" vertex="1" parent="1">
          <mxGeometry x="165" y="220" width="30" height="30" as="geometry" />
        </mxCell>
        <mxCell id="o-8nTQ83cVyLMwu0-6GU-4" value="3" style="text;html=1;align=center;verticalAlign=middle;resizable=0;points=[];autosize=1;strokeColor=none;fillColor=none;" vertex="1" parent="1">
          <mxGeometry x="165" y="340" width="30" height="30" as="geometry" />
        </mxCell>
        <mxCell id="o-8nTQ83cVyLMwu0-6GU-5" value="4" style="text;html=1;align=center;verticalAlign=middle;resizable=0;points=[];autosize=1;strokeColor=none;fillColor=none;" vertex="1" parent="1">
          <mxGeometry x="165" y="440" width="30" height="30" as="geometry" />
        </mxCell>
        <mxCell id="o-8nTQ83cVyLMwu0-6GU-6" value="5" style="text;html=1;align=center;verticalAlign=middle;resizable=0;points=[];autosize=1;strokeColor=none;fillColor=none;" vertex="1" parent="1">
          <mxGeometry x="165" y="630" width="30" height="30" as="geometry" />
        </mxCell>
        <mxCell id="o-8nTQ83cVyLMwu0-6GU-7" value="6" style="text;html=1;align=center;verticalAlign=middle;resizable=0;points=[];autosize=1;strokeColor=none;fillColor=none;" vertex="1" parent="1">
          <mxGeometry x="165" y="810" width="30" height="30" as="geometry" />
        </mxCell>
        <mxCell id="o-8nTQ83cVyLMwu0-6GU-8" value="7" style="text;html=1;align=center;verticalAlign=middle;resizable=0;points=[];autosize=1;strokeColor=none;fillColor=none;" vertex="1" parent="1">
          <mxGeometry x="165" y="990" width="30" height="30" as="geometry" />
        </mxCell>
        <mxCell id="o-8nTQ83cVyLMwu0-6GU-9" value="8" style="text;html=1;align=center;verticalAlign=middle;resizable=0;points=[];autosize=1;strokeColor=none;fillColor=none;" vertex="1" parent="1">
          <mxGeometry x="810" y="790" width="30" height="30" as="geometry" />
        </mxCell>
        <mxCell id="o-8nTQ83cVyLMwu0-6GU-10" value="9" style="text;html=1;align=center;verticalAlign=middle;resizable=0;points=[];autosize=1;strokeColor=none;fillColor=none;" vertex="1" parent="1">
          <mxGeometry x="800" y="535" width="30" height="30" as="geometry" />
        </mxCell>
        <mxCell id="o-8nTQ83cVyLMwu0-6GU-11" value="10" style="text;html=1;align=center;verticalAlign=middle;resizable=0;points=[];autosize=1;strokeColor=none;fillColor=none;" vertex="1" parent="1">
          <mxGeometry x="805" y="1015" width="40" height="30" as="geometry" />
        </mxCell>
        <mxCell id="o-8nTQ83cVyLMwu0-6GU-12" value="11" style="text;html=1;align=center;verticalAlign=middle;resizable=0;points=[];autosize=1;strokeColor=none;fillColor=none;" vertex="1" parent="1">
          <mxGeometry x="160" y="1170" width="40" height="30" as="geometry" />
        </mxCell>
        <mxCell id="o-8nTQ83cVyLMwu0-6GU-16" value="12" style="text;html=1;align=center;verticalAlign=middle;resizable=0;points=[];autosize=1;strokeColor=none;fillColor=none;" vertex="1" parent="1">
          <mxGeometry x="175" y="1440" width="40" height="30" as="geometry" />
        </mxCell>
        <mxCell id="o-8nTQ83cVyLMwu0-6GU-17" value="data mhs" style="text;html=1;align=center;verticalAlign=middle;resizable=0;points=[];autosize=1;strokeColor=none;fillColor=none;" vertex="1" parent="1">
          <mxGeometry x="-30" y="130" width="70" height="30" as="geometry" />
        </mxCell>
        <mxCell id="o-8nTQ83cVyLMwu0-6GU-18" value="record mhs" style="text;html=1;align=center;verticalAlign=middle;resizable=0;points=[];autosize=1;strokeColor=none;fillColor=none;" vertex="1" parent="1">
          <mxGeometry x="275" y="125" width="80" height="30" as="geometry" />
        </mxCell>
        <mxCell id="o-8nTQ83cVyLMwu0-6GU-19" value="record dosen" style="text;html=1;align=center;verticalAlign=middle;resizable=0;points=[];autosize=1;strokeColor=none;fillColor=none;" vertex="1" parent="1">
          <mxGeometry x="270" y="230" width="90" height="30" as="geometry" />
        </mxCell>
        <mxCell id="o-8nTQ83cVyLMwu0-6GU-20" value="record jurusan" style="text;html=1;align=center;verticalAlign=middle;resizable=0;points=[];autosize=1;strokeColor=none;fillColor=none;" vertex="1" parent="1">
          <mxGeometry x="265" y="350" width="100" height="30" as="geometry" />
        </mxCell>
        <mxCell id="o-8nTQ83cVyLMwu0-6GU-21" value="record matakuliah" style="text;html=1;align=center;verticalAlign=middle;resizable=0;points=[];autosize=1;strokeColor=none;fillColor=none;" vertex="1" parent="1">
          <mxGeometry x="255" y="450" width="120" height="30" as="geometry" />
        </mxCell>
        <mxCell id="o-8nTQ83cVyLMwu0-6GU-22" value="record jurusan" style="text;html=1;align=center;verticalAlign=middle;resizable=0;points=[];autosize=1;strokeColor=none;fillColor=none;" vertex="1" parent="1">
          <mxGeometry x="300" y="550" width="100" height="30" as="geometry" />
        </mxCell>
        <mxCell id="o-8nTQ83cVyLMwu0-6GU-23" value="record dosen" style="text;html=1;align=center;verticalAlign=middle;resizable=0;points=[];autosize=1;strokeColor=none;fillColor=none;" vertex="1" parent="1">
          <mxGeometry x="305" y="590" width="90" height="30" as="geometry" />
        </mxCell>
        <mxCell id="o-8nTQ83cVyLMwu0-6GU-24" value="record jadwal" style="text;html=1;align=center;verticalAlign=middle;resizable=0;points=[];autosize=1;strokeColor=none;fillColor=none;" vertex="1" parent="1">
          <mxGeometry x="305" y="640" width="90" height="30" as="geometry" />
        </mxCell>
        <mxCell id="o-8nTQ83cVyLMwu0-6GU-25" value="record jadwal" style="text;html=1;align=center;verticalAlign=middle;resizable=0;points=[];autosize=1;strokeColor=none;fillColor=none;" vertex="1" parent="1">
          <mxGeometry x="300" y="760" width="90" height="30" as="geometry" />
        </mxCell>
        <mxCell id="o-8nTQ83cVyLMwu0-6GU-26" value="record mhs" style="text;html=1;align=center;verticalAlign=middle;resizable=0;points=[];autosize=1;strokeColor=none;fillColor=none;" vertex="1" parent="1">
          <mxGeometry x="305" y="810" width="80" height="30" as="geometry" />
        </mxCell>
        <mxCell id="o-8nTQ83cVyLMwu0-6GU-27" value="record krs" style="text;html=1;align=center;verticalAlign=middle;resizable=0;points=[];autosize=1;strokeColor=none;fillColor=none;" vertex="1" parent="1">
          <mxGeometry x="315" y="850" width="80" height="30" as="geometry" />
        </mxCell>
        <mxCell id="o-8nTQ83cVyLMwu0-6GU-28" value="data krs" style="text;html=1;align=center;verticalAlign=middle;resizable=0;points=[];autosize=1;strokeColor=none;fillColor=none;" vertex="1" parent="1">
          <mxGeometry x="320" y="830" width="70" height="30" as="geometry" />
        </mxCell>
        <mxCell id="o-8nTQ83cVyLMwu0-6GU-29" value="data dosen" style="text;html=1;align=center;verticalAlign=middle;resizable=0;points=[];autosize=1;strokeColor=none;fillColor=none;" vertex="1" parent="1">
          <mxGeometry x="35" y="230" width="80" height="30" as="geometry" />
        </mxCell>
        <mxCell id="o-8nTQ83cVyLMwu0-6GU-30" value="data jurusan" style="text;html=1;align=center;verticalAlign=middle;resizable=0;points=[];autosize=1;strokeColor=none;fillColor=none;" vertex="1" parent="1">
          <mxGeometry x="10" y="360" width="90" height="30" as="geometry" />
        </mxCell>
        <mxCell id="o-8nTQ83cVyLMwu0-6GU-32" value="data matakuliah" style="text;html=1;align=center;verticalAlign=middle;resizable=0;points=[];autosize=1;strokeColor=none;fillColor=none;" vertex="1" parent="1">
          <mxGeometry x="-10" y="450" width="110" height="30" as="geometry" />
        </mxCell>
        <mxCell id="o-8nTQ83cVyLMwu0-6GU-33" value="data jadwal" style="text;html=1;align=center;verticalAlign=middle;resizable=0;points=[];autosize=1;strokeColor=none;fillColor=none;" vertex="1" parent="1">
          <mxGeometry x="15" y="640" width="80" height="30" as="geometry" />
        </mxCell>
        <mxCell id="o-8nTQ83cVyLMwu0-6GU-34" value="data krs" style="text;html=1;align=center;verticalAlign=middle;resizable=0;points=[];autosize=1;strokeColor=none;fillColor=none;" vertex="1" parent="1">
          <mxGeometry x="15" y="815" width="70" height="30" as="geometry" />
        </mxCell>
        <mxCell id="o-8nTQ83cVyLMwu0-6GU-36" value="data mhs" style="text;html=1;align=center;verticalAlign=middle;resizable=0;points=[];autosize=1;strokeColor=none;fillColor=none;" vertex="1" parent="1">
          <mxGeometry x="470" y="20" width="70" height="30" as="geometry" />
        </mxCell>
        <mxCell id="o-8nTQ83cVyLMwu0-6GU-37" value="record materi kuliah" style="text;html=1;align=center;verticalAlign=middle;resizable=0;points=[];autosize=1;strokeColor=none;fillColor=none;" vertex="1" parent="1">
          <mxGeometry x="820" y="460" width="130" height="30" as="geometry" />
        </mxCell>
        <mxCell id="o-8nTQ83cVyLMwu0-6GU-38" value="record materi kuliah" style="text;html=1;align=center;verticalAlign=middle;resizable=0;points=[];autosize=1;strokeColor=none;fillColor=none;" vertex="1" parent="1">
          <mxGeometry x="910" y="580" width="130" height="30" as="geometry" />
        </mxCell>
        <mxCell id="o-8nTQ83cVyLMwu0-6GU-39" value="&lt;font style=&quot;font-size: 10px;&quot;&gt;record mahasiswa&lt;/font&gt;" style="text;html=1;align=center;verticalAlign=middle;resizable=0;points=[];autosize=1;strokeColor=none;fillColor=none;" vertex="1" parent="1">
          <mxGeometry x="930" y="710" width="100" height="30" as="geometry" />
        </mxCell>
        <mxCell id="o-8nTQ83cVyLMwu0-6GU-40" value="&lt;font style=&quot;font-size: 10px;&quot;&gt;record jurusan&lt;/font&gt;" style="text;html=1;align=center;verticalAlign=middle;resizable=0;points=[];autosize=1;strokeColor=none;fillColor=none;" vertex="1" parent="1">
          <mxGeometry x="940" y="760" width="90" height="30" as="geometry" />
        </mxCell>
        <mxCell id="o-8nTQ83cVyLMwu0-6GU-41" value="&lt;font style=&quot;font-size: 10px;&quot;&gt;record&amp;nbsp; matkul&lt;/font&gt;" style="text;html=1;align=center;verticalAlign=middle;resizable=0;points=[];autosize=1;strokeColor=none;fillColor=none;" vertex="1" parent="1">
          <mxGeometry x="950" y="810" width="90" height="30" as="geometry" />
        </mxCell>
        <mxCell id="o-8nTQ83cVyLMwu0-6GU-42" value="&lt;span style=&quot;font-size: 10px;&quot;&gt;data meteri kuliah&lt;/span&gt;" style="text;html=1;align=center;verticalAlign=middle;resizable=0;points=[];autosize=1;strokeColor=none;fillColor=none;" vertex="1" parent="1">
          <mxGeometry x="940" y="880" width="100" height="30" as="geometry" />
        </mxCell>
        <mxCell id="o-8nTQ83cVyLMwu0-6GU-43" value="&lt;span style=&quot;font-size: 10px;&quot;&gt;data nilai&lt;/span&gt;" style="text;html=1;align=center;verticalAlign=middle;resizable=0;points=[];autosize=1;strokeColor=none;fillColor=none;" vertex="1" parent="1">
          <mxGeometry x="950" y="1030" width="60" height="30" as="geometry" />
        </mxCell>
        <mxCell id="o-8nTQ83cVyLMwu0-6GU-44" value="data presensi" style="text;html=1;align=center;verticalAlign=middle;resizable=0;points=[];autosize=1;strokeColor=none;fillColor=none;" vertex="1" parent="1">
          <mxGeometry x="-15" y="1000" width="100" height="30" as="geometry" />
        </mxCell>
        <mxCell id="o-8nTQ83cVyLMwu0-6GU-45" value="data KHS" style="text;html=1;align=center;verticalAlign=middle;resizable=0;points=[];autosize=1;strokeColor=none;fillColor=none;" vertex="1" parent="1">
          <mxGeometry x="5" y="1185" width="70" height="30" as="geometry" />
        </mxCell>
        <mxCell id="o-8nTQ83cVyLMwu0-6GU-46" value="record krs" style="text;html=1;align=center;verticalAlign=middle;resizable=0;points=[];autosize=1;strokeColor=none;fillColor=none;" vertex="1" parent="1">
          <mxGeometry x="305" y="940" width="80" height="30" as="geometry" />
        </mxCell>
        <mxCell id="o-8nTQ83cVyLMwu0-6GU-47" value="record presensi" style="text;html=1;align=center;verticalAlign=middle;resizable=0;points=[];autosize=1;strokeColor=none;fillColor=none;" vertex="1" parent="1">
          <mxGeometry x="295" y="1000" width="110" height="30" as="geometry" />
        </mxCell>
        <mxCell id="o-8nTQ83cVyLMwu0-6GU-48" value="record presensi" style="text;html=1;align=center;verticalAlign=middle;resizable=0;points=[];autosize=1;strokeColor=none;fillColor=none;" vertex="1" parent="1">
          <mxGeometry x="305" y="1100" width="110" height="30" as="geometry" />
        </mxCell>
        <mxCell id="o-8nTQ83cVyLMwu0-6GU-49" value="record krs" style="text;html=1;align=center;verticalAlign=middle;resizable=0;points=[];autosize=1;strokeColor=none;fillColor=none;" vertex="1" parent="1">
          <mxGeometry x="325" y="1170" width="80" height="30" as="geometry" />
        </mxCell>
        <mxCell id="o-8nTQ83cVyLMwu0-6GU-50" value="record nilai&amp;nbsp;" style="text;html=1;align=center;verticalAlign=middle;resizable=0;points=[];autosize=1;strokeColor=none;fillColor=none;" vertex="1" parent="1">
          <mxGeometry x="325" y="1215" width="90" height="30" as="geometry" />
        </mxCell>
        <mxCell id="o-8nTQ83cVyLMwu0-6GU-52" value="record KHS" style="text;html=1;align=center;verticalAlign=middle;resizable=0;points=[];autosize=1;strokeColor=none;fillColor=none;" vertex="1" parent="1">
          <mxGeometry x="240" y="1350" width="90" height="30" as="geometry" />
        </mxCell>
        <mxCell id="o-8nTQ83cVyLMwu0-6GU-53" value="record nilai" style="text;html=1;align=center;verticalAlign=middle;resizable=0;points=[];autosize=1;strokeColor=none;fillColor=none;" vertex="1" parent="1">
          <mxGeometry x="250" y="1450" width="80" height="30" as="geometry" />
        </mxCell>
        <mxCell id="o-8nTQ83cVyLMwu0-6GU-54" value="record mhs" style="text;html=1;align=center;verticalAlign=middle;resizable=0;points=[];autosize=1;strokeColor=none;fillColor=none;" vertex="1" parent="1">
          <mxGeometry x="75" y="1360" width="80" height="30" as="geometry" />
        </mxCell>
        <mxCell id="o-8nTQ83cVyLMwu0-6GU-55" value="record dosen" style="text;html=1;align=center;verticalAlign=middle;resizable=0;points=[];autosize=1;strokeColor=none;fillColor=none;" vertex="1" parent="1">
          <mxGeometry x="50" y="1420" width="90" height="30" as="geometry" />
        </mxCell>
        <mxCell id="o-8nTQ83cVyLMwu0-6GU-56" value="record jurusan" style="text;html=1;align=center;verticalAlign=middle;resizable=0;points=[];autosize=1;strokeColor=none;fillColor=none;" vertex="1" parent="1">
          <mxGeometry x="45" y="1450" width="100" height="30" as="geometry" />
        </mxCell>
        <mxCell id="o-8nTQ83cVyLMwu0-6GU-57" value="record matkul" style="text;html=1;align=center;verticalAlign=middle;resizable=0;points=[];autosize=1;strokeColor=none;fillColor=none;" vertex="1" parent="1">
          <mxGeometry x="-40" y="1550" width="100" height="30" as="geometry" />
        </mxCell>
        <mxCell id="o-8nTQ83cVyLMwu0-6GU-58" value="record jadwal" style="text;html=1;align=center;verticalAlign=middle;resizable=0;points=[];autosize=1;strokeColor=none;fillColor=none;" vertex="1" parent="1">
          <mxGeometry x="-10" y="1640" width="90" height="30" as="geometry" />
        </mxCell>
        <mxCell id="o-8nTQ83cVyLMwu0-6GU-59" value="record krs" style="text;html=1;align=center;verticalAlign=middle;resizable=0;points=[];autosize=1;strokeColor=none;fillColor=none;" vertex="1" parent="1">
          <mxGeometry x="55" y="1730" width="80" height="30" as="geometry" />
        </mxCell>
        <mxCell id="o-8nTQ83cVyLMwu0-6GU-60" value="record presensi" style="text;html=1;align=center;verticalAlign=middle;resizable=0;points=[];autosize=1;strokeColor=none;fillColor=none;" vertex="1" parent="1">
          <mxGeometry x="75" y="1780" width="110" height="30" as="geometry" />
        </mxCell>
        <mxCell id="o-8nTQ83cVyLMwu0-6GU-61" value="record nilai" style="text;html=1;align=center;verticalAlign=middle;resizable=0;points=[];autosize=1;strokeColor=none;fillColor=none;" vertex="1" parent="1">
          <mxGeometry x="820" y="1120" width="80" height="30" as="geometry" />
        </mxCell>
        <mxCell id="o-8nTQ83cVyLMwu0-6GU-62" value="record matkul" style="text;html=1;align=center;verticalAlign=middle;resizable=0;points=[];autosize=1;strokeColor=none;fillColor=none;" vertex="1" parent="1">
          <mxGeometry x="724" y="1114" width="100" height="30" as="geometry" />
        </mxCell>
        <mxCell id="o-8nTQ83cVyLMwu0-6GU-63" value="&lt;font style=&quot;font-size: 10px;&quot;&gt;record jurusan&lt;/font&gt;" style="text;html=1;align=center;verticalAlign=middle;resizable=0;points=[];autosize=1;strokeColor=none;fillColor=none;" vertex="1" parent="1">
          <mxGeometry x="660" y="1040" width="90" height="30" as="geometry" />
        </mxCell>
        <mxCell id="o-8nTQ83cVyLMwu0-6GU-64" value="&lt;font style=&quot;font-size: 10px;&quot;&gt;record mahasiswa&lt;/font&gt;" style="text;html=1;align=center;verticalAlign=middle;resizable=0;points=[];autosize=1;strokeColor=none;fillColor=none;" vertex="1" parent="1">
          <mxGeometry x="720" y="980" width="100" height="30" as="geometry" />
        </mxCell>
        <mxCell id="o-8nTQ83cVyLMwu0-6GU-65" value="record krs" style="text;html=1;align=center;verticalAlign=middle;resizable=0;points=[];autosize=1;strokeColor=none;fillColor=none;" vertex="1" parent="1">
          <mxGeometry x="680" y="890" width="80" height="30" as="geometry" />
        </mxCell>
        <mxCell id="o-8nTQ83cVyLMwu0-6GU-66" value="record krs" style="text;html=1;align=center;verticalAlign=middle;resizable=0;points=[];autosize=1;strokeColor=none;fillColor=none;" vertex="1" parent="1">
          <mxGeometry x="660" y="810" width="80" height="30" as="geometry" />
        </mxCell>
        <mxCell id="o-8nTQ83cVyLMwu0-6GU-68" value="record materi kuliah" style="text;html=1;align=center;verticalAlign=middle;resizable=0;points=[];autosize=1;strokeColor=none;fillColor=none;" vertex="1" parent="1">
          <mxGeometry x="740" y="740" width="130" height="30" as="geometry" />
        </mxCell>
        <mxCell id="P-CU7WXb-SiELrwNnoaF-2" value="&lt;font style=&quot;font-size: 36px;&quot;&gt;Tugas&amp;nbsp; Sistem Informasi Manajemen&lt;br&gt;Flowchart Sistem Informasi Akademi di Universitas Amikom Yogyakarta&lt;/font&gt;" style="text;html=1;align=center;verticalAlign=middle;resizable=0;points=[];autosize=1;strokeColor=none;fillColor=none;" vertex="1" parent="1">
          <mxGeometry x="-75" y="-310" width="1160" height="100" as="geometry" />
        </mxCell>
        <mxCell id="P-CU7WXb-SiELrwNnoaF-3" value="&lt;div style=&quot;text-align: left;&quot;&gt;&lt;span style=&quot;background-color: initial;&quot;&gt;&lt;b style=&quot;&quot;&gt;&lt;font style=&quot;font-size: 14px;&quot;&gt;Nama Kelompok :&lt;/font&gt;&lt;/b&gt;&lt;/span&gt;&lt;/div&gt;&lt;div style=&quot;text-align: left;&quot;&gt;&lt;span style=&quot;background-color: initial;&quot;&gt;&lt;b&gt;&lt;font size=&quot;3&quot;&gt;&lt;br&gt;&lt;/font&gt;&lt;/b&gt;&lt;/span&gt;&lt;/div&gt;&lt;div style=&quot;text-align: left;&quot;&gt;&lt;b&gt;&lt;font size=&quot;3&quot;&gt;&lt;span style=&quot;background-color: initial;&quot;&gt;Damianus Saviola Maturbongs 22.12.2274&lt;/span&gt;&lt;br&gt;&lt;/font&gt;&lt;/b&gt;&lt;/div&gt;&lt;div style=&quot;text-align: left;&quot;&gt;&lt;span style=&quot;background-color: initial;&quot;&gt;&lt;font size=&quot;3&quot;&gt;&lt;b&gt;Leonardo Madora Dewa Pattiwua 22.12.2282&lt;/b&gt;&lt;/font&gt;&lt;/span&gt;&lt;/div&gt;&lt;div style=&quot;text-align: left;&quot;&gt;&lt;span style=&quot;background-color: initial;&quot;&gt;&lt;font size=&quot;3&quot;&gt;&lt;b&gt;Ananda Krisna Budi 22.12.2260&lt;/b&gt;&lt;/font&gt;&lt;/span&gt;&lt;/div&gt;&lt;div style=&quot;text-align: left;&quot;&gt;&lt;span style=&quot;background-color: initial;&quot;&gt;&lt;font size=&quot;3&quot;&gt;&lt;b&gt;Ramli 22.12.2301&lt;/b&gt;&lt;/font&gt;&lt;/span&gt;&lt;/div&gt;" style="text;html=1;align=center;verticalAlign=middle;resizable=0;points=[];autosize=1;fillColor=#ffe6cc;strokeColor=#d79b00;rounded=1;glass=0;shadow=0;sketch=1;curveFitting=1;jiggle=2;" vertex="1" parent="1">
          <mxGeometry x="930" y="115" width="360" height="130" as="geometry" />
        </mxCell>
        <mxCell id="P-CU7WXb-SiELrwNnoaF-8" value="&lt;b&gt;&lt;font style=&quot;font-size: 18px;&quot;&gt;&lt;font style=&quot;&quot;&gt;Indormasi&amp;nbsp; data yang dibutuhkan :&lt;/font&gt;&lt;br&gt;&lt;br&gt;&lt;/font&gt;&lt;/b&gt;&lt;div style=&quot;text-align: left;&quot;&gt;&lt;ul&gt;&lt;li&gt;&lt;font size=&quot;3&quot; style=&quot;&quot;&gt;&lt;b&gt;Informasi data dosen&lt;/b&gt;&lt;/font&gt;&lt;/li&gt;&lt;li&gt;&lt;font size=&quot;3&quot;&gt;&lt;b&gt;informasi data jurusan&lt;/b&gt;&lt;/font&gt;&lt;/li&gt;&lt;li&gt;&lt;font size=&quot;3&quot;&gt;&lt;b&gt;informasi jadwal mengajar&lt;/b&gt;&lt;/font&gt;&lt;/li&gt;&lt;li&gt;&lt;font size=&quot;3&quot;&gt;&lt;b&gt;informasi materi kuliah&lt;/b&gt;&lt;/font&gt;&lt;/li&gt;&lt;li&gt;&lt;font size=&quot;3&quot;&gt;&lt;b&gt;data nilai&lt;/b&gt;&lt;/font&gt;&lt;/li&gt;&lt;li&gt;&lt;font size=&quot;3&quot;&gt;&lt;b&gt;data presensi&lt;/b&gt;&lt;/font&gt;&lt;/li&gt;&lt;li&gt;&lt;font size=&quot;3&quot;&gt;&lt;b&gt;data mahasiswa&lt;/b&gt;&lt;/font&gt;&lt;/li&gt;&lt;li&gt;&lt;font size=&quot;3&quot;&gt;&lt;b&gt;data jurusan&lt;/b&gt;&lt;/font&gt;&lt;/li&gt;&lt;li&gt;&lt;font size=&quot;3&quot;&gt;&lt;b&gt;data jadwal kuliah&lt;/b&gt;&lt;/font&gt;&lt;/li&gt;&lt;li&gt;&lt;font size=&quot;3&quot;&gt;&lt;b&gt;data presensi&lt;/b&gt;&lt;/font&gt;&lt;/li&gt;&lt;li&gt;&lt;font size=&quot;3&quot;&gt;&lt;b&gt;data nilai&lt;/b&gt;&lt;/font&gt;&lt;/li&gt;&lt;li&gt;&lt;font size=&quot;3&quot;&gt;&lt;b&gt;data KRS&lt;/b&gt;&lt;/font&gt;&lt;/li&gt;&lt;li&gt;&lt;font size=&quot;3&quot;&gt;&lt;b&gt;data KHS&lt;/b&gt;&lt;/font&gt;&lt;/li&gt;&lt;/ul&gt;&lt;/div&gt;" style="text;html=1;align=center;verticalAlign=middle;resizable=0;points=[];autosize=1;fillColor=#ffe6cc;strokeColor=#d79b00;" vertex="1" parent="1">
          <mxGeometry x="780" y="1590" width="320" height="330" as="geometry" />
        </mxCell>
      </root>
    </mxGraphModel>
  </diagram>
</mxfile>
